<svg width="24" height="24" viewBox="0 0 24 24" fill="none" xmlns="http://www.w3.org/2000/svg">
<g clip-path="url(#clip0_850_31)">
<path d="M10.3125 0H0.9375C0.419678 0 0 0.419678 0 0.9375V10.3125C0 10.8303 0.419678 11.25 0.9375 11.25H10.3125C10.8303 11.25 11.25 10.8303 11.25 10.3125V0.9375C11.25 0.419678 10.8303 0 10.3125 0ZM9.375 9.375H1.875V1.875H9.375V9.375ZM23.4214 12.8214C23.0711 12.6762 22.6677 12.7564 22.3997 13.0245L13.0247 22.3995C12.7564 22.6677 12.6762 23.0709 12.8214 23.4212C12.9666 23.7717 13.3083 24 13.6875 24H23.0625C23.5803 24 24 23.5803 24 23.0625V13.6875C24 13.3083 23.7717 12.9664 23.4214 12.8214ZM22.125 22.125H15.9509L22.125 15.9509V22.125ZM18.375 11.25C21.4766 11.25 24 8.72662 24 5.625C24 2.52338 21.4766 0 18.375 0C15.2734 0 12.75 2.52338 12.75 5.625C12.75 8.72662 15.2734 11.25 18.375 11.25ZM18.375 1.875C20.4428 1.875 22.125 3.55719 22.125 5.625C22.125 7.69281 20.4428 9.375 18.375 9.375C16.3072 9.375 14.625 7.69281 14.625 5.625C14.625 3.55719 16.3072 1.875 18.375 1.875ZM10.9753 14.3505L6.95087 18.375L10.9753 22.3995C11.3416 22.7657 11.3416 23.3593 10.9753 23.7253C10.6093 24.0914 10.0157 24.0915 9.64966 23.7253L5.625 19.7009L1.60034 23.7255C1.23431 24.0915 0.640686 24.0915 0.274658 23.7255C-0.0915527 23.3593 -0.0915527 22.7657 0.274658 22.3997L4.29913 18.375L0.274658 14.3505C-0.0915527 13.9843 -0.0915527 13.3907 0.274658 13.0247C0.640686 12.6584 1.23431 12.6584 1.60034 13.0247L5.625 17.0491L9.64966 13.0245C10.0157 12.6584 10.6093 12.6584 10.9753 13.0245C11.3416 13.3907 11.3416 13.9843 10.9753 14.3505Z" fill="#0A62D0"/>
</g>
<defs>
<clipPath id="clip0_850_31">
<rect width="24" height="24" fill="white"/>
</clipPath>
</defs>
</svg>
