<svg width="1174" height="262" viewBox="0 0 1174 262" fill="none" xmlns="http://www.w3.org/2000/svg">
<path opacity="0.1" d="M618.8 261.082C925.429 261.082 1174 247.185 1174 230.042C1174 212.9 925.429 199.003 618.8 199.003C312.172 199.003 63.6011 212.9 63.6011 230.042C63.6011 247.185 312.172 261.082 618.8 261.082Z" fill="#0A62D0"/>
<path d="M953.049 251.73C972.206 251.73 987.736 248.817 987.736 245.222C987.736 241.628 972.206 238.714 953.049 238.714C933.892 238.714 918.362 241.628 918.362 245.222C918.362 248.817 933.892 251.73 953.049 251.73Z" fill="#0A62D0"/>
<path d="M952.474 247.615C954.707 247.615 956.517 245.306 956.517 242.458C956.517 239.61 954.707 237.302 952.474 237.302C950.241 237.302 948.43 239.61 948.43 242.458C948.43 245.306 950.241 247.615 952.474 247.615Z" fill="#3F3D56"/>
<path d="M952.474 241.307C954.707 241.307 956.517 238.998 956.517 236.15C956.517 233.302 954.707 230.994 952.474 230.994C950.241 230.994 948.43 233.302 948.43 236.15C948.43 238.998 950.241 241.307 952.474 241.307Z" fill="#3F3D56"/>
<path d="M952.474 235.009C954.707 235.009 956.517 232.7 956.517 229.852C956.517 227.004 954.707 224.696 952.474 224.696C950.241 224.696 948.43 227.004 948.43 229.852C948.43 232.7 950.241 235.009 952.474 235.009Z" fill="#3F3D56"/>
<path d="M952.474 228.701C954.707 228.701 956.517 226.392 956.517 223.544C956.517 220.696 954.707 218.387 952.474 218.387C950.241 218.387 948.43 220.696 948.43 223.544C948.43 226.392 950.241 228.701 952.474 228.701Z" fill="#3F3D56"/>
<path d="M952.474 222.393C954.707 222.393 956.517 220.084 956.517 217.236C956.517 214.388 954.707 212.079 952.474 212.079C950.241 212.079 948.43 214.388 948.43 217.236C948.43 220.084 950.241 222.393 952.474 222.393Z" fill="#3F3D56"/>
<path d="M952.474 216.095C954.707 216.095 956.517 213.786 956.517 210.938C956.517 208.09 954.707 205.781 952.474 205.781C950.241 205.781 948.43 208.09 948.43 210.938C948.43 213.786 950.241 216.095 952.474 216.095Z" fill="#3F3D56"/>
<path d="M952.474 209.787C954.707 209.787 956.517 207.478 956.517 204.63C956.517 201.782 954.707 199.473 952.474 199.473C950.241 199.473 948.43 201.782 948.43 204.63C948.43 207.478 950.241 209.787 952.474 209.787Z" fill="#3F3D56"/>
<path d="M967.59 161.485C968.137 160.796 968.638 160.074 969.088 159.322L958.487 157.62L969.96 157.71C971.064 155.373 971.667 152.84 971.73 150.267C971.794 147.695 971.317 145.137 970.33 142.751L954.936 150.541L969.139 140.358C967.803 138.125 966.012 136.184 963.875 134.655C961.739 133.126 959.303 132.042 956.72 131.469C954.136 130.896 951.459 130.848 948.855 131.326C946.251 131.804 943.776 132.799 941.582 134.249C939.389 135.699 937.524 137.573 936.104 139.756C934.683 141.938 933.738 144.382 933.325 146.935C932.912 149.489 933.042 152.098 933.705 154.601C934.369 157.103 935.552 159.446 937.182 161.485C936.325 162.554 935.585 163.708 934.976 164.929L948.758 171.938L934.062 167.132C933.029 170.103 932.769 173.279 933.306 176.373C933.843 179.467 935.161 182.381 937.141 184.854C934.898 187.639 933.503 190.983 933.116 194.504C932.729 198.025 933.364 201.582 934.951 204.767C936.537 207.952 939.01 210.638 942.087 212.517C945.164 214.396 948.72 215.392 952.35 215.392C955.98 215.392 959.536 214.396 962.613 212.517C965.69 210.638 968.163 207.952 969.749 204.767C971.336 201.582 971.972 198.025 971.584 194.504C971.197 190.983 969.802 187.639 967.559 184.854C970.238 181.526 971.694 177.417 971.694 173.185C971.694 168.952 970.238 164.843 967.559 161.515L967.59 161.485Z" fill="#0A62D0"/>
<path opacity="0.1" d="M933.036 173.15C933.023 177.38 934.469 181.492 937.141 184.825C934.898 187.609 933.503 190.953 933.116 194.474C932.729 197.995 933.364 201.552 934.951 204.737C936.537 207.923 939.01 210.608 942.087 212.487C945.164 214.366 948.72 215.362 952.35 215.362C955.98 215.362 959.536 214.366 962.613 212.487C965.69 210.608 968.163 207.923 969.749 204.737C971.336 201.552 971.972 197.995 971.584 194.474C971.197 190.953 969.802 187.609 967.559 184.825C970.176 181.61 933.036 171.037 933.036 173.15Z" fill="black"/>
<path d="M225.996 235.709C234.667 235.709 241.697 234.391 241.697 232.766C241.697 231.14 234.667 229.822 225.996 229.822C217.324 229.822 210.294 231.14 210.294 232.766C210.294 234.391 217.324 235.709 225.996 235.709Z" fill="#0A62D0"/>
<path d="M225.739 233.847C226.748 233.847 227.566 232.803 227.566 231.514C227.566 230.226 226.748 229.181 225.739 229.181C224.73 229.181 223.913 230.226 223.913 231.514C223.913 232.803 224.73 233.847 225.739 233.847Z" fill="#3F3D56"/>
<path d="M225.739 230.993C226.748 230.993 227.566 229.949 227.566 228.66C227.566 227.372 226.748 226.327 225.739 226.327C224.73 226.327 223.913 227.372 223.913 228.66C223.913 229.949 224.73 230.993 225.739 230.993Z" fill="#3F3D56"/>
<path d="M225.739 228.14C226.748 228.14 227.566 227.095 227.566 225.807C227.566 224.518 226.748 223.474 225.739 223.474C224.73 223.474 223.913 224.518 223.913 225.807C223.913 227.095 224.73 228.14 225.739 228.14Z" fill="#3F3D56"/>
<path d="M225.739 225.286C226.748 225.286 227.566 224.242 227.566 222.953C227.566 221.665 226.748 220.62 225.739 220.62C224.73 220.62 223.913 221.665 223.913 222.953C223.913 224.242 224.73 225.286 225.739 225.286Z" fill="#3F3D56"/>
<path d="M225.739 222.432C226.748 222.432 227.566 221.388 227.566 220.099C227.566 218.811 226.748 217.766 225.739 217.766C224.73 217.766 223.913 218.811 223.913 220.099C223.913 221.388 224.73 222.432 225.739 222.432Z" fill="#3F3D56"/>
<path d="M225.739 219.579C226.748 219.579 227.566 218.534 227.566 217.246C227.566 215.957 226.748 214.913 225.739 214.913C224.73 214.913 223.913 215.957 223.913 217.246C223.913 218.534 224.73 219.579 225.739 219.579Z" fill="#3F3D56"/>
<path d="M225.739 216.725C226.748 216.725 227.566 215.681 227.566 214.392C227.566 213.104 226.748 212.059 225.739 212.059C224.73 212.059 223.913 213.104 223.913 214.392C223.913 215.681 224.73 216.725 225.739 216.725Z" fill="#3F3D56"/>
<path d="M232.574 194.857C232.829 194.54 233.059 194.206 233.262 193.856L228.459 193.085H233.652C234.18 191.964 234.453 190.744 234.452 189.51C234.455 188.415 234.239 187.33 233.816 186.316L226.848 189.841L233.272 185.235C232.668 184.224 231.857 183.346 230.89 182.654C229.923 181.962 228.821 181.471 227.651 181.212C226.482 180.953 225.271 180.931 224.092 181.148C222.914 181.364 221.794 181.815 220.801 182.471C219.808 183.127 218.965 183.976 218.322 184.963C217.679 185.951 217.251 187.057 217.065 188.213C216.879 189.369 216.937 190.549 217.238 191.682C217.539 192.815 218.074 193.875 218.812 194.797C218.414 195.277 218.07 195.797 217.786 196.349L224.015 199.513L217.365 197.33C216.902 198.675 216.788 200.112 217.036 201.51C217.283 202.908 217.883 204.225 218.782 205.341C217.762 206.601 217.127 208.116 216.95 209.713C216.772 211.309 217.058 212.922 217.776 214.367C218.494 215.812 219.615 217.03 221.01 217.883C222.404 218.735 224.017 219.187 225.663 219.187C227.308 219.187 228.921 218.735 230.316 217.883C231.71 217.03 232.831 215.812 233.549 214.367C234.267 212.922 234.553 211.309 234.375 209.713C234.198 208.116 233.563 206.601 232.544 205.341C233.76 203.836 234.421 201.975 234.421 200.059C234.421 198.142 233.76 196.282 232.544 194.777L232.574 194.857Z" fill="#0A62D0"/>
<path d="M835.543 218.575C835.543 229.748 826.24 234.827 814.765 234.827C803.29 234.827 793.988 229.748 793.988 218.575C793.988 207.401 798.605 194.364 814.765 198.86C830.926 192.116 835.543 207.401 835.543 218.575Z" fill="#FF6584"/>
<path d="M813.752 204.094C812.944 204.095 812.164 203.81 811.556 203.291C810.949 202.772 810.557 202.056 810.453 201.275C809.765 195.701 805.973 184.783 804.375 180.348L804.375 180.347C804.213 179.906 804.163 179.434 804.23 178.97C804.297 178.507 804.478 178.066 804.759 177.686C805.027 177.346 805.366 177.065 805.753 176.862C806.141 176.658 806.568 176.537 807.007 176.506C807.446 176.476 807.886 176.536 808.3 176.682C808.713 176.829 809.09 177.06 809.406 177.359C809.687 177.646 809.905 177.987 810.046 178.36C810.186 178.733 810.246 179.13 810.222 179.527C809.909 185.219 814.171 194.417 816.739 199.394C816.981 199.863 817.103 200.383 817.094 200.908C817.084 201.433 816.944 201.948 816.685 202.409C816.426 202.869 816.055 203.262 815.606 203.552C815.156 203.843 814.641 204.022 814.105 204.076C813.988 204.088 813.87 204.095 813.752 204.094V204.094Z" fill="#3F3D56"/>
<path d="M829.128 191.537C836.34 185.789 830.681 174.026 821.654 176.284C820.44 176.567 819.32 177.148 818.403 177.973C812.865 183.067 812.007 196.098 812.007 196.098C812.007 196.098 821.786 197.388 829.128 191.537Z" fill="#3F3D56"/>
<path d="M28.1257 24.1212C19.5795 21.0337 9.81937 24.6394 6.32572 32.1748C2.83208 39.7102 6.92793 48.3218 15.4741 51.4093C24.0202 54.4968 33.7804 50.8911 37.274 43.3557C40.7677 35.8203 36.6718 27.2087 28.1257 24.1212Z" fill="#0A62D0"/>
<path d="M48.3979 3.62647C42.8536 1.62346 36.5217 3.96271 34.2552 8.85131C31.9887 13.7399 34.6459 19.3266 40.1902 21.3297C45.7345 23.3327 52.0664 20.9935 54.3329 16.1049C56.5994 11.2163 53.9422 5.62948 48.3979 3.62647Z" fill="#0A62D0"/>
<path d="M90.7373 19.6483C85.193 17.6452 78.8611 19.9845 76.5946 24.8731C74.3281 29.7617 76.9853 35.3484 82.5296 37.3514C88.0738 39.3544 94.4057 37.0152 96.6722 32.1266C98.9387 27.238 96.2815 21.6513 90.7373 19.6483Z" fill="#0A62D0"/>
</svg>
