<svg width="1168" height="757" viewBox="0 0 1168 757" fill="none" xmlns="http://www.w3.org/2000/svg">
<path opacity="0.1" d="M560.99 757C859.899 757 1102.21 743.103 1102.21 725.96C1102.21 708.817 859.899 694.92 560.99 694.92C262.082 694.92 19.7681 708.817 19.7681 725.96C19.7681 743.103 262.082 757 560.99 757Z" fill="#0A62D0"/>
<g opacity="0.2">
<path opacity="0.2" d="M1007.67 727.352C1007.18 728.293 1006.6 729.188 1005.94 730.026C1000.18 725.96 994.322 721.978 988.366 718.08C988.486 717.83 988.616 717.569 988.756 717.319C990.139 714.646 992.212 712.392 994.759 710.791C998.05 708.788 1001.76 708.308 1004.76 709.93C1007.76 711.552 1009.52 714.876 1009.71 718.721C1009.81 721.728 1009.11 724.708 1007.67 727.352Z" fill="#3F3D56"/>
<path opacity="0.2" d="M1015.73 712.274C1019.35 705.428 1018.05 697.633 1012.83 694.863C1007.61 692.093 1000.43 695.398 996.81 702.244C993.187 709.091 994.485 716.886 999.709 719.656C1004.93 722.425 1012.11 719.121 1015.73 712.274Z" fill="#3F3D56"/>
<path opacity="0.2" d="M1023.74 697.12C1027.37 690.274 1026.07 682.478 1020.84 679.709C1015.62 676.939 1008.45 680.244 1004.82 687.09C1001.2 693.936 1002.5 701.732 1007.72 704.501C1012.95 707.271 1020.12 703.966 1023.74 697.12Z" fill="#3F3D56"/>
<path opacity="0.2" d="M1031.77 681.961C1035.39 675.115 1034.1 667.32 1028.87 664.55C1023.65 661.78 1016.47 665.085 1012.85 671.931C1009.23 678.777 1010.53 686.573 1015.75 689.342C1020.97 692.112 1028.15 688.807 1031.77 681.961Z" fill="#3F3D56"/>
<path opacity="0.2" d="M1039.79 666.798C1043.41 659.951 1042.11 652.156 1036.89 649.386C1031.67 646.617 1024.49 649.922 1020.87 656.768C1017.25 663.614 1018.54 671.409 1023.77 674.179C1028.99 676.949 1036.16 673.644 1039.79 666.798Z" fill="#3F3D56"/>
<path opacity="0.2" d="M1049.74 539.211C1049.32 536.895 1049.06 534.553 1048.96 532.202L1075.97 541.294L1048.96 527.276C1049.35 520.269 1051.18 513.417 1054.31 507.141C1057.45 500.865 1061.83 495.296 1067.2 490.779L1093.32 528.687L1073 486.563C1078.97 482.831 1085.64 480.368 1092.61 479.328C1099.57 478.289 1106.67 478.694 1113.47 480.519C1120.27 482.344 1126.62 485.55 1132.13 489.938C1137.63 494.325 1142.18 499.8 1145.48 506.022C1148.79 512.244 1150.77 519.079 1151.32 526.103C1151.87 533.127 1150.97 540.189 1148.68 546.849C1146.38 553.51 1142.74 559.626 1137.99 564.819C1133.23 570.011 1127.45 574.167 1121.02 577.029C1121.68 580.661 1121.95 584.354 1121.82 588.044L1080.65 587.723L1121.19 594.402C1119.82 602.831 1116.38 610.787 1111.16 617.549C1105.95 624.311 1099.14 629.666 1091.34 633.131C1093.06 642.613 1092.08 652.387 1088.51 661.338C1084.94 670.288 1078.93 678.052 1071.16 683.743C1063.39 689.434 1054.17 692.821 1044.57 693.518C1034.97 694.214 1025.36 692.192 1016.85 687.682C1008.35 683.173 1001.28 676.357 996.456 668.016C991.635 659.674 989.257 650.143 989.593 640.512C989.93 630.882 992.967 621.54 998.358 613.556C1003.75 605.572 1011.28 599.267 1020.08 595.363C1018.04 584.04 1019.85 572.357 1025.23 562.19C1030.61 552.022 1039.25 543.958 1049.76 539.291L1049.74 539.211Z" fill="#0A62D0"/>
<path opacity="0.1" d="M1115.86 610.182C1110.49 620.369 1101.85 628.443 1091.32 633.091C1093.04 642.573 1092.06 652.347 1088.49 661.298C1084.92 670.248 1078.91 678.012 1071.14 683.703C1063.37 689.394 1054.15 692.781 1044.55 693.478C1034.95 694.174 1025.34 692.152 1016.84 687.642C1008.33 683.133 1001.26 676.317 996.436 667.976C991.615 659.634 989.237 650.103 989.573 640.472C989.91 630.842 992.947 621.5 998.338 613.516C1003.73 605.532 1011.26 599.227 1020.06 595.323C1018.07 584.379 1118.56 605.095 1115.86 610.182Z" fill="black"/>
</g>
<g opacity="0.2">
<path opacity="0.2" d="M975.531 424.494C974.908 426.101 974.156 427.655 973.28 429.14C963.203 423.76 952.995 418.533 942.657 413.46C942.798 413.029 942.958 412.579 943.128 412.148C944.804 407.584 947.672 403.553 951.431 400.473C956.303 396.568 962.176 395.096 967.438 397.089C972.7 399.081 976.061 404.098 977.112 410.216C977.871 415.031 977.325 419.962 975.531 424.494Z" fill="#3F3D56"/>
<path opacity="0.2" d="M985.419 398.578C989.879 386.852 986.24 374.582 977.291 371.172C968.343 367.763 957.473 374.505 953.013 386.232C948.553 397.958 952.192 410.228 961.14 413.638C970.089 417.047 980.959 410.305 985.419 398.578Z" fill="#3F3D56"/>
<path opacity="0.2" d="M995.296 372.632C999.756 360.906 996.117 348.636 987.168 345.226C978.22 341.817 967.35 348.559 962.89 360.286C958.43 372.012 962.069 384.282 971.017 387.692C979.966 391.101 990.836 384.359 995.296 372.632Z" fill="#3F3D56"/>
<path opacity="0.2" d="M1005.16 346.673C1009.62 334.947 1005.98 322.677 997.029 319.268C988.081 315.858 977.211 322.601 972.751 334.327C968.291 346.054 971.93 358.324 980.878 361.733C989.827 365.142 1000.7 358.4 1005.16 346.673Z" fill="#3F3D56"/>
<path opacity="0.2" d="M1015.03 320.738C1019.49 309.011 1015.85 296.741 1006.91 293.332C997.958 289.922 987.088 296.665 982.628 308.391C978.168 320.118 981.807 332.388 990.755 335.797C999.704 339.206 1010.57 332.464 1015.03 320.738Z" fill="#3F3D56"/>
<path opacity="0.2" d="M1005.66 113.846C1004.52 110.18 1003.64 106.44 1003.01 102.652L1048.25 111.873L1002.07 94.6713C1001.31 83.3756 1002.87 72.0439 1006.64 61.3696C1010.4 50.6953 1016.31 40.903 1023.99 32.5918L1073.57 88.1229L1032.55 24.5114C1041.41 17.3562 1051.63 12.0981 1062.6 9.06347C1073.57 6.02887 1085.04 5.28256 1096.31 6.87083C1107.57 8.4591 1118.39 12.3481 1128.1 18.2964C1137.8 24.2447 1146.18 32.1254 1152.71 41.4494C1159.24 50.7734 1163.79 61.3417 1166.07 72.4985C1168.35 83.6553 1168.32 95.1623 1165.97 106.306C1163.63 117.449 1159.02 127.99 1152.43 137.276C1145.84 146.562 1137.42 154.394 1127.68 160.285C1129.46 165.989 1130.62 171.867 1131.14 177.818L1064.95 185.508L1131.41 188.161C1130.88 201.98 1126.93 215.45 1119.9 227.354C1112.87 239.258 1102.98 249.22 1091.14 256.338C1095.78 271.223 1096.14 287.114 1092.18 302.195C1088.22 317.276 1080.11 330.938 1068.76 341.621C1057.41 352.304 1043.29 359.576 1028.01 362.607C1012.73 365.637 996.903 364.304 982.342 358.759C967.782 353.214 955.074 343.681 945.67 331.25C936.267 318.819 930.547 303.99 929.164 288.46C927.782 272.929 930.793 257.322 937.852 243.423C944.912 229.524 955.737 217.893 969.088 209.859C963.533 192.067 964.115 172.923 970.742 155.502C977.368 138.081 989.653 123.396 1005.62 113.806L1005.66 113.846Z" fill="#0A62D0"/>
<path opacity="0.1" d="M1126.01 214.675C1119.41 232.099 1107.12 246.78 1091.14 256.339C1095.78 271.223 1096.14 287.114 1092.18 302.195C1088.22 317.276 1080.11 330.938 1068.76 341.621C1057.41 352.304 1043.29 359.576 1028.01 362.607C1012.73 365.637 996.903 364.304 982.342 358.759C967.782 353.214 955.074 343.681 945.67 331.25C936.267 318.819 930.547 303.991 929.164 288.46C927.782 272.929 930.793 257.322 937.852 243.423C944.912 229.524 955.737 217.893 969.088 209.859C963.756 192.717 1129.33 205.964 1126.01 214.675Z" fill="black"/>
</g>
<g opacity="0.2">
<path opacity="0.2" d="M178.453 510.815C178.96 512.802 179.629 514.744 180.454 516.622C193.126 511.762 205.941 507.09 218.9 502.604C218.79 502.073 218.68 501.523 218.54 500.982C217.235 495.345 214.447 490.159 210.466 485.963C205.284 480.636 198.572 478.032 192.119 479.615C185.666 481.197 180.914 486.624 178.763 493.633C177.123 499.228 177.016 505.163 178.453 510.815Z" fill="#3F3D56"/>
<path opacity="0.2" d="M197.112 500.058C208.175 497.355 214.276 483.414 210.741 468.92C207.205 454.426 195.371 444.868 184.309 447.571C173.247 450.274 167.145 464.215 170.68 478.709C174.216 493.203 186.05 502.762 197.112 500.058Z" fill="#3F3D56"/>
<path opacity="0.2" d="M189.285 467.996C200.348 465.293 206.449 451.352 202.914 436.858C199.378 422.364 187.544 412.805 176.482 415.508C165.42 418.212 159.318 432.153 162.854 446.647C166.389 461.141 178.223 470.699 189.285 467.996Z" fill="#3F3D56"/>
<path opacity="0.2" d="M181.468 435.921C192.53 433.218 198.632 419.277 195.096 404.783C191.561 390.289 179.727 380.73 168.665 383.434C157.602 386.137 151.501 400.078 155.036 414.572C158.572 429.066 170.406 438.624 181.468 435.921Z" fill="#3F3D56"/>
<path opacity="0.2" d="M173.639 403.839C184.701 401.136 190.803 387.195 187.267 372.701C183.732 358.207 171.898 348.648 160.836 351.351C149.773 354.055 143.672 367.996 147.207 382.49C150.743 396.984 162.577 406.542 173.639 403.839Z" fill="#3F3D56"/>
<path opacity="0.2" d="M188.657 139.809C190.548 135.654 192.146 131.371 193.439 126.993L138.707 131.178L195.73 117.701C198.296 104.478 198.136 90.8696 195.262 77.7103C192.387 64.5511 186.858 52.1179 179.013 41.1728L112.306 99.4875L170.1 30.4791C160.715 20.6973 149.419 12.953 136.915 7.72816C124.411 2.50329 110.967 -0.0904676 97.4183 0.108272C83.8699 0.307011 70.5073 3.29399 58.1618 8.88338C45.8162 14.4728 34.7519 22.545 25.6572 32.5979C16.5625 42.6507 9.63184 54.4692 5.29652 67.318C0.961192 80.1667 -0.686094 93.7709 0.457141 107.284C1.60038 120.798 5.50968 133.931 11.9418 145.867C18.374 157.803 27.1914 168.287 37.8455 176.666C34.9069 183.137 32.6699 189.904 31.1728 196.852L108.154 215.686L29.342 209.008C27.9216 225.386 30.6014 241.861 37.1392 256.943C43.677 272.024 53.8667 285.238 66.7874 295.388C59.1137 312.271 56.341 330.973 58.7862 349.358C61.2314 367.743 68.7959 385.069 80.6149 399.354C92.4338 413.639 108.03 424.308 125.621 430.14C143.212 435.972 162.088 436.732 180.09 432.334C198.093 427.936 214.496 418.557 227.424 405.268C240.351 391.98 249.283 375.319 253.196 357.191C257.11 339.062 255.848 320.197 249.555 302.752C243.262 285.307 232.192 269.986 217.609 258.541C226.778 238.361 228.902 215.682 223.64 194.148C218.379 172.614 206.037 153.476 188.597 139.809H188.657Z" fill="#0A62D0"/>
<path opacity="0.1" d="M31.773 241.029C36.9925 262.579 49.3305 281.734 66.7874 295.388C59.1137 312.271 56.341 330.973 58.7862 349.358C61.2314 367.743 68.7959 385.069 80.6148 399.354C92.4338 413.639 108.03 424.308 125.621 430.14C143.212 435.972 162.088 436.732 180.09 432.334C198.093 427.936 214.496 418.557 227.424 405.268C240.351 391.98 249.283 375.319 253.196 357.191C257.11 339.062 255.848 320.197 249.555 302.752C243.262 285.307 232.192 269.986 217.609 258.541C226.493 239.066 29.1619 230.305 31.773 241.029Z" fill="black"/>
</g>
<path d="M1056.73 113.856H87.596C86.46 113.857 85.3355 114.083 84.2867 114.519C83.2378 114.956 82.2853 115.595 81.4834 116.4C80.6816 117.206 80.0462 118.161 79.6137 119.213C79.1811 120.264 78.9598 121.39 78.9624 122.527V716.168C78.9585 718.46 79.4056 720.73 80.2783 722.849C81.1509 724.968 82.432 726.894 84.0484 728.517C85.6648 730.141 87.5849 731.43 89.6989 732.31C91.813 733.191 94.0797 733.646 96.3696 733.65H1047.96C1050.25 733.646 1052.52 733.191 1054.63 732.31C1056.75 731.43 1058.67 730.141 1060.28 728.517C1061.9 726.894 1063.18 724.968 1064.05 722.849C1064.92 720.73 1065.37 718.46 1065.37 716.168V122.527C1065.37 120.232 1064.46 118.029 1062.84 116.403C1061.22 114.777 1059.03 113.861 1056.73 113.856Z" fill="url(#paint0_linear)"/>
<path d="M1061.45 150.713V712.673C1061.44 717.253 1059.62 721.645 1056.39 724.883C1053.15 728.122 1048.77 729.943 1044.19 729.945H100.311C95.7318 729.945 91.3398 728.124 88.1016 724.883C84.8634 721.642 83.0442 717.247 83.0442 712.663V150.713H1061.45Z" fill="white"/>
<path d="M1061.45 125.741V150.713H83.0442V125.741C83.0442 123.468 83.9464 121.288 85.5524 119.681C87.1584 118.073 89.3365 117.17 91.6077 117.17H1052.88C1055.15 117.17 1057.33 118.073 1058.94 119.681C1060.54 121.288 1061.45 123.468 1061.45 125.741Z" fill="#EDEDF4"/>
<path opacity="0.8" d="M98.5505 137.696C100.761 137.696 102.552 135.903 102.552 133.691C102.552 131.479 100.761 129.686 98.5505 129.686C96.3404 129.686 94.5488 131.479 94.5488 133.691C94.5488 135.903 96.3404 137.696 98.5505 137.696Z" fill="#FA5959"/>
<path opacity="0.8" d="M109.555 137.696C111.765 137.696 113.557 135.903 113.557 133.691C113.557 131.479 111.765 129.686 109.555 129.686C107.345 129.686 105.553 131.479 105.553 133.691C105.553 135.903 107.345 137.696 109.555 137.696Z" fill="#FED253"/>
<path opacity="0.8" d="M120.559 137.696C122.77 137.696 124.561 135.903 124.561 133.691C124.561 131.479 122.77 129.686 120.559 129.686C118.349 129.686 116.558 131.479 116.558 133.691C116.558 135.903 118.349 137.696 120.559 137.696Z" fill="#8CCF4D"/>
<path d="M629.188 102.852V98.8467H623.186V102.852H629.188Z" fill="url(#paint1_linear)"/>
<path d="M402.095 199.966H308.057V209.979H402.095V199.966Z" fill="#EDEDF4"/>
<path d="M836.274 229.003H308.057V239.016H836.274V229.003Z" fill="#EDEDF4"/>
<path d="M836.274 258.041H308.057V268.053H836.274V258.041Z" fill="#EDEDF4"/>
<path d="M836.274 287.078H308.057V297.091H836.274V287.078Z" fill="#EDEDF4"/>
<path d="M836.274 316.115H308.057V326.128H836.274V316.115Z" fill="#EDEDF4"/>
<path d="M735.062 371.506H408.928V623.829H735.062V371.506Z" fill="#EDEDF4"/>
<path d="M629.219 449.676C628.798 449.676 628.378 449.736 627.948 449.746C628.09 449.164 628.137 448.562 628.088 447.964C627.965 445.439 627.282 442.973 626.087 440.745C625.352 439.432 624.523 438.174 623.606 436.98C620.885 433.215 618.364 429.37 615.373 425.816C614.076 424.434 613.005 422.856 612.202 421.14C611.9 420.213 611.539 419.307 611.121 418.426C610.543 417.526 609.728 416.803 608.767 416.335C607.805 415.867 606.733 415.672 605.669 415.773C603.529 416.025 601.559 417.068 600.147 418.696C599.306 419.598 598.616 420.989 599.316 422.011C600.017 423.032 601.537 423.162 601.627 424.284C601.627 424.884 601.627 425.866 601.017 426.056C599.934 426.343 598.901 426.795 597.956 427.398C597.488 427.708 597.099 428.122 596.82 428.609C596.54 429.096 596.378 429.641 596.345 430.201C598.076 430.462 599.526 429.01 601.097 428.199C603.091 427.348 605.329 427.266 607.38 427.968C608.168 428.178 608.904 428.55 609.541 429.06C610.102 429.611 610.574 430.246 610.941 430.942C612.868 433.731 614.059 436.961 614.403 440.334L615.283 445.961C613.981 446.065 612.685 446.239 611.401 446.482C607.946 446.992 604.422 446.753 601.067 445.781C597.566 444.78 594.064 442.958 590.453 443.779C588.762 444.149 587.221 445.09 585.511 445.361C584.174 445.49 582.825 445.419 581.509 445.15L578.758 444.71C578.668 444.48 578.598 444.239 578.528 443.999C577.959 441.991 577.696 439.908 577.747 437.821C579.541 437.725 581.284 437.19 582.824 436.264C584.364 435.339 585.654 434.05 586.582 432.51C587.509 430.97 588.046 429.227 588.146 427.431C588.245 425.636 587.904 423.844 587.151 422.211C588.635 421.379 589.863 420.156 590.703 418.676L590.002 418.546L590.663 417.545C590.507 417.45 590.376 417.32 590.279 417.166C590.182 417.012 590.122 416.837 590.103 416.656C590.085 416.475 590.109 416.292 590.173 416.121C590.237 415.95 590.339 415.797 590.473 415.673C589.89 415.37 589.238 415.225 588.582 415.252C588.792 414.862 588.452 414.381 588.042 414.251C587.614 414.164 587.176 414.137 586.741 414.171C586.103 414.122 585.476 413.976 584.88 413.74C580.609 412.268 575.977 410.977 571.625 412.208C569.707 412.807 567.914 413.751 566.333 414.992C564.792 415.858 563.641 417.281 563.116 418.971C562.591 420.66 562.733 422.486 563.512 424.073C564.172 425.714 564.645 427.423 564.922 429.17C564.983 430.801 564.798 432.431 564.372 434.006C565.325 434.296 566.298 434.514 567.283 434.657C566.727 436.807 565.744 438.823 564.392 440.585C563.772 441.364 563.104 442.103 562.391 442.797H562.271C560.288 443.169 558.283 443.416 556.269 443.538C554.148 443.538 552.067 442.737 549.956 442.887C548.705 443.029 547.474 443.307 546.285 443.719C540.793 445.33 535.089 446.093 529.368 445.981L528.677 446.052L529.318 441.966C529.661 438.594 530.852 435.363 532.779 432.574C533.146 431.878 533.618 431.243 534.18 430.692C534.82 430.182 535.559 429.81 536.35 429.6C538.398 428.898 540.633 428.98 542.623 429.831C544.194 430.602 545.624 432.054 547.385 431.833C547.349 431.273 547.184 430.728 546.903 430.241C546.622 429.755 546.232 429.34 545.764 429.03C544.819 428.427 543.786 427.975 542.703 427.688C542.123 427.498 542.043 426.517 542.093 425.916C542.183 424.794 543.773 424.554 544.404 423.633C545.034 422.712 544.404 421.23 543.573 420.319C542.158 418.694 540.19 417.655 538.051 417.405C536.988 417.304 535.918 417.498 534.958 417.966C533.998 418.435 533.185 419.158 532.609 420.058C532.184 420.937 531.819 421.843 531.518 422.772C530.715 424.488 529.644 426.066 528.347 427.448C525.346 431.002 522.835 434.847 520.114 438.612C519.203 439.806 518.374 441.061 517.633 442.367C516.444 444.601 515.761 447.069 515.632 449.596C515.583 450.197 515.63 450.802 515.772 451.388C515.705 451.53 515.668 451.683 515.662 451.839C515.693 452.113 515.778 452.377 515.912 452.618C516.046 452.859 516.226 453.07 516.442 453.241C517.973 454.783 519.584 456.375 521.644 457.036C522.927 457.339 524.226 457.563 525.536 457.706C528.697 458.277 531.609 460.11 534.82 460.1C537.031 460.1 539.212 459.218 541.392 459.529C544.394 459.939 546.555 462.383 548.395 464.756C549.959 466.608 551.133 468.757 551.847 471.074C552.557 473.867 552.117 477.011 553.608 479.474C553.984 479.977 554.274 480.539 554.468 481.137C554.499 482.081 554.289 483.019 553.858 483.86C552.597 487.735 555.358 491.87 555.068 495.875C554.928 497.828 554.068 499.67 553.978 501.623C553.828 504.136 554.848 506.95 553.447 509.042C554.298 508.602 555.158 508.211 556.039 507.861C551.837 520.187 548.035 532.893 548.325 545.849C548.545 554.25 550.326 563.502 545.504 570.401C544.819 571.223 544.275 572.154 543.894 573.154C543.513 574.506 543.894 575.938 544.144 577.32C545.034 583.327 541.793 589.245 541.573 595.343C541.547 597.222 541.668 599.1 541.933 600.96L543.113 611.113C541.924 611.372 540.817 611.923 539.892 612.715C538.651 613.716 537.561 615.359 538.141 616.86C538.611 618.072 539.992 618.653 541.262 618.953C542.565 619.099 543.811 619.571 544.884 620.325C545.227 620.705 545.591 621.066 545.974 621.406C546.714 621.807 547.561 621.965 548.395 621.857C549.926 621.797 551.397 621.667 552.957 621.456C553.281 621.443 553.596 621.343 553.868 621.166C554.05 620.964 554.19 620.726 554.278 620.468C554.365 620.209 554.4 619.936 554.378 619.664C554.49 618.14 554.426 616.608 554.188 615.098C554.128 614.808 554.048 614.527 553.968 614.237C554.493 612.95 554.866 611.606 555.078 610.232C555.388 608.229 555.438 606.137 555.568 604.084C555.868 598.857 556.569 593.671 557.369 588.484L558.369 581.816C558.68 579.623 559 577.43 559.37 575.237C561.225 563.36 564.11 551.668 567.993 540.292C568.844 537.859 570.294 535.006 572.865 534.935L574.396 537.939C576.397 541.704 577.617 545.879 579.138 549.835C581.139 555.031 580.459 561.099 583.14 565.985C583.58 566.796 584.14 567.567 584.47 568.418C584.944 569.728 585.221 571.102 585.291 572.494L587.061 590.517C587.862 598.617 588.722 606.938 592.353 614.217C592.581 614.686 592.849 615.135 593.154 615.559C593.042 616.771 593.025 617.989 593.104 619.203C593.048 619.418 593.043 619.643 593.088 619.86C593.134 620.077 593.23 620.28 593.367 620.454C593.505 620.628 593.681 620.767 593.882 620.861C594.083 620.955 594.303 621.001 594.524 620.996C596.035 621.196 597.526 621.326 599.076 621.386C599.91 621.495 600.758 621.337 601.497 620.936C601.888 620.601 602.256 620.24 602.598 619.854C603.667 619.101 604.909 618.629 606.209 618.483C607.48 618.192 608.86 617.611 609.33 616.39C609.921 614.888 608.82 613.256 607.58 612.245C606.574 611.365 605.338 610.792 604.018 610.592C603.475 610.624 602.929 610.58 602.398 610.462C602.521 609.802 602.562 609.13 602.518 608.46C602.39 607.672 602.356 606.872 602.418 606.077C602.622 605.273 602.896 604.489 603.238 603.734C604.388 600.189 601.937 596.584 601.077 592.96C599.927 588.134 601.637 583.077 601.327 578.121C600.847 570.341 595.425 563.041 596.865 555.382C598.016 549.254 597.035 542.956 595.945 536.818L591.943 513.979C591.662 512.125 591.175 510.308 590.493 508.562C591.235 508.433 591.965 508.239 592.674 507.981C593.674 505.538 593.504 502.844 593.204 500.221C592.904 497.598 592.203 495.034 591.853 492.431C591.55 490.338 591.376 488.228 591.333 486.113C591.224 484.027 591.372 481.935 591.773 479.885C592.233 478.085 592.86 476.332 593.644 474.648C595.58 469.787 597.923 465.097 600.647 460.63C604.759 460.31 608.74 459.959 612.842 459.629C613.825 459.584 614.803 459.453 615.763 459.238C616.987 458.816 618.233 458.459 619.495 458.167C619.965 458.143 620.43 458.051 620.875 457.897C621.776 457.486 622.326 456.335 623.316 456.295C623.688 456.344 624.065 456.344 624.437 456.295C624.877 456.155 625.097 455.674 625.437 455.293C626.057 454.603 627.068 454.462 627.878 454.012C628.573 453.56 629.088 452.879 629.332 452.087C629.577 451.295 629.537 450.442 629.219 449.676Z" fill="url(#paint2_linear)"/>
<path d="M577.177 438.722C583.255 438.722 588.182 433.791 588.182 427.708C588.182 421.625 583.255 416.694 577.177 416.694C571.1 416.694 566.173 421.625 566.173 427.708C566.173 433.791 571.1 438.722 577.177 438.722Z" fill="#A1616A"/>
<path d="M564.472 441.416C563.347 442.8 562.091 444.071 560.72 445.21C567.185 449.068 574.87 450.334 582.229 448.755C581.959 448.004 580.979 447.894 580.288 447.513C579.392 446.877 578.781 445.913 578.588 444.83C577.846 442.191 577.628 439.432 577.947 436.71C578.082 436.049 578.082 435.368 577.947 434.707C577.563 433.716 576.825 432.902 575.877 432.424C574.318 431.451 572.635 430.693 570.874 430.171C569.054 429.63 568.013 429.38 567.943 431.503C567.869 435.093 566.653 438.565 564.472 441.416Z" fill="#A1616A"/>
<path d="M615.533 448.345L614.413 441.235C614.232 439.805 613.934 438.392 613.522 437.01C612.851 435.216 611.993 433.497 610.961 431.883C610.594 431.19 610.122 430.559 609.561 430.011C608.924 429.501 608.188 429.13 607.4 428.92C605.355 428.22 603.123 428.305 601.137 429.16C599.567 429.921 598.136 431.363 596.385 431.112C596.418 430.552 596.582 430.008 596.863 429.523C597.145 429.037 597.536 428.625 598.006 428.319C598.93 427.718 599.943 427.265 601.007 426.977C601.577 426.797 601.667 425.816 601.617 425.215C601.527 424.103 599.937 423.863 599.306 422.952C598.676 422.041 599.306 420.559 600.127 419.648C601.54 418.029 603.505 416.997 605.639 416.754C606.701 416.648 607.771 416.838 608.731 417.302C609.692 417.767 610.505 418.489 611.081 419.387C611.506 420.262 611.871 421.166 612.172 422.091C612.975 423.799 614.042 425.37 615.333 426.747C618.334 430.281 620.845 434.106 623.556 437.851C624.463 439.044 625.292 440.295 626.037 441.596C627.23 443.814 627.914 446.27 628.038 448.785C628.128 449.559 628.014 450.342 627.708 451.058C627.398 451.579 626.959 452.012 626.433 452.313C625.907 452.615 625.313 452.776 624.707 452.78C623.477 452.75 622.262 452.506 621.115 452.059L616.754 450.587C616.223 450.47 615.737 450.202 615.353 449.816C615.195 449.593 615.125 449.318 615.158 449.046C615.192 448.773 615.325 448.523 615.533 448.345Z" fill="#A1616A"/>
<path d="M528.347 449.917L529.458 442.807C529.647 441.378 529.948 439.965 530.358 438.582C531.025 436.786 531.884 435.067 532.919 433.455C533.277 432.762 533.747 432.133 534.31 431.593C534.943 431.078 535.68 430.705 536.47 430.502C538.518 429.799 540.753 429.881 542.743 430.732C544.314 431.493 545.744 432.935 547.495 432.684C547.461 432.125 547.296 431.581 547.015 431.096C546.734 430.611 546.343 430.198 545.874 429.891C544.949 429.291 543.937 428.839 542.873 428.549C542.303 428.369 542.213 427.388 542.263 426.787C542.353 425.675 543.934 425.435 544.574 424.524C545.214 423.613 544.574 422.131 543.744 421.23C542.333 419.607 540.367 418.571 538.231 418.326C537.17 418.221 536.1 418.411 535.14 418.876C534.179 419.34 533.366 420.062 532.789 420.959C532.367 421.835 532.006 422.738 531.708 423.663C530.902 425.369 529.835 426.94 528.547 428.319C525.546 431.853 523.035 435.678 520.314 439.423C519.409 440.616 518.583 441.867 517.843 443.168C516.655 445.388 515.972 447.842 515.842 450.357C515.757 451.135 515.874 451.921 516.182 452.64C516.498 453.166 516.946 453.601 517.481 453.901C518.016 454.201 518.62 454.357 519.233 454.352C520.46 454.326 521.673 454.082 522.815 453.631L527.187 452.199C527.715 452.084 528.199 451.816 528.577 451.428C528.742 451.196 528.81 450.908 528.767 450.626C528.724 450.344 528.574 450.09 528.347 449.917Z" fill="#A1616A"/>
<path d="M607.58 612.204C608.82 613.206 609.911 614.838 609.331 616.33C608.85 617.541 607.48 618.112 606.209 618.412C604.911 618.56 603.67 619.028 602.598 619.774C602.258 620.142 601.894 620.487 601.507 620.806C600.769 621.211 599.921 621.369 599.086 621.256C597.566 621.196 596.085 621.066 594.534 620.866C594.21 620.852 593.896 620.752 593.624 620.575C593.441 620.376 593.301 620.14 593.215 619.883C593.129 619.625 593.098 619.353 593.124 619.083C593.003 617.566 593.064 616.04 593.304 614.537C593.556 613.028 594.332 611.656 595.495 610.662C596.655 609.761 600.177 607.088 601.497 608.8C601.847 609.261 601.707 609.891 602.198 610.272C602.688 610.652 603.458 610.442 604.018 610.512C605.343 610.723 606.579 611.311 607.58 612.204Z" fill="#3F3D56"/>
<path d="M539.982 612.725C538.741 613.726 537.651 615.358 538.231 616.85C538.701 618.062 540.072 618.643 541.343 618.933C542.641 619.079 543.882 619.547 544.954 620.295C545.296 620.68 545.663 621.041 546.054 621.376C546.791 621.775 547.634 621.933 548.465 621.827C549.986 621.767 551.467 621.636 553.017 621.426C553.342 621.414 553.656 621.314 553.928 621.136C554.113 620.937 554.254 620.701 554.342 620.444C554.43 620.187 554.462 619.915 554.438 619.644C554.55 618.13 554.486 616.608 554.248 615.108C554.002 613.594 553.225 612.217 552.057 611.223C550.906 610.322 547.385 607.649 546.054 609.361C545.704 609.821 545.844 610.462 545.344 610.833C544.844 611.203 544.094 611.003 543.523 611.073C542.211 611.279 540.984 611.852 539.982 612.725Z" fill="#3F3D56"/>
<path d="M556.989 505.888C552.477 518.905 548.095 532.372 548.435 546.18C548.656 554.541 550.436 563.752 545.624 570.611C544.938 571.429 544.393 572.356 544.014 573.355C543.633 574.696 544.014 576.118 544.254 577.5C545.154 583.508 541.923 589.375 541.693 595.443C541.668 597.312 541.788 599.18 542.053 601.03L543.303 611.724C543.723 615.388 548.445 616.89 552.087 617.401C553.799 615.356 554.874 612.853 555.178 610.202C555.488 608.199 555.538 606.127 555.658 604.094C555.968 598.887 556.719 593.721 557.459 588.564L558.46 581.926C558.78 579.743 559.09 577.56 559.46 575.377C561.328 563.591 564.217 551.989 568.093 540.703C568.944 538.27 570.394 535.436 572.956 535.366L574.486 538.31C576.487 542.045 577.697 546.21 579.218 550.145C581.219 555.322 580.529 561.349 583.22 566.225C583.66 567.027 584.22 567.798 584.54 568.639C585.009 569.926 585.286 571.276 585.361 572.644L587.131 590.547C587.932 598.607 588.782 606.888 592.414 614.127C592.773 614.992 593.348 615.751 594.084 616.33C595.565 617.331 597.636 616.82 599.086 615.779C600.234 614.934 601.151 613.816 601.756 612.525C602.361 611.234 602.633 609.812 602.548 608.39C602.43 607.604 602.396 606.809 602.448 606.016C602.66 605.219 602.934 604.439 603.268 603.684C604.429 600.159 601.977 596.574 601.107 592.97C599.957 588.164 601.667 583.137 601.367 578.201C600.887 570.451 595.475 563.182 596.905 555.562C598.056 549.464 597.075 543.196 595.995 537.088L591.943 514.359C591.303 510.774 590.343 506.729 587.151 504.977C585.322 504.157 583.316 503.813 581.319 503.976C573.046 503.976 565.142 505.127 556.989 505.888Z" fill="#3F3D56"/>
<path d="M629.219 450.487C626.305 450.781 623.372 450.173 620.815 448.745C619.844 448.099 618.808 447.555 617.724 447.123C615.723 446.472 613.522 447.043 611.421 447.353C607.972 447.853 604.457 447.614 601.107 446.652C597.606 445.651 594.104 443.839 590.503 444.65C588.812 445.02 587.281 445.951 585.571 446.222C584.234 446.357 582.884 446.286 581.569 446.012L570.164 444.229C567.591 443.714 564.962 443.525 562.341 443.669C560.357 444.038 558.353 444.289 556.339 444.42C554.228 444.42 552.147 443.618 550.036 443.759C548.789 443.901 547.561 444.18 546.375 444.59C540.895 446.192 535.205 446.951 529.498 446.843C524.947 447.141 520.561 448.663 516.802 451.248C516.543 451.392 516.319 451.591 516.146 451.832C515.973 452.072 515.855 452.348 515.802 452.64C515.835 452.911 515.922 453.173 516.058 453.411C516.194 453.648 516.375 453.856 516.592 454.022C518.113 455.564 519.724 457.146 521.784 457.807C523.063 458.108 524.36 458.329 525.666 458.467C528.817 459.048 531.729 460.861 534.93 460.861C537.141 460.861 539.312 459.979 541.493 460.29C544.494 460.7 546.645 463.123 548.495 465.486C550.052 467.332 551.225 469.47 551.947 471.775C552.647 474.558 552.207 477.682 553.698 480.135C554.072 480.636 554.362 481.194 554.558 481.787C554.59 482.729 554.38 483.664 553.948 484.501C552.687 488.356 555.448 492.431 555.158 496.516C555.018 498.449 554.158 500.291 554.068 502.224C553.928 504.737 554.938 507.53 553.537 509.613C558.942 506.888 564.947 505.575 570.995 505.798C572 505.822 573.003 505.916 573.996 506.078C575.925 506.472 577.823 507.001 579.678 507.661C583.86 508.992 588.462 509.943 592.584 508.422C593.584 505.988 593.414 503.305 593.104 500.702C592.794 498.098 592.153 495.535 591.763 492.942C591.46 490.858 591.286 488.758 591.243 486.654C591.134 484.577 591.282 482.496 591.683 480.456C592.142 478.665 592.768 476.922 593.554 475.249C595.484 470.385 597.827 465.695 600.557 461.231C604.659 460.901 608.63 460.55 612.732 460.23C613.711 460.176 614.684 460.045 615.643 459.839C616.864 459.422 618.107 459.067 619.365 458.778C619.836 458.751 620.301 458.657 620.745 458.498C621.645 458.087 622.206 456.946 623.186 456.915C623.558 456.96 623.934 456.96 624.307 456.915C624.747 456.785 624.957 456.295 625.307 455.914C625.927 455.223 626.938 455.083 627.748 454.643C628.429 454.22 628.945 453.579 629.213 452.823C629.48 452.068 629.482 451.244 629.219 450.487Z" fill="#0A62D0"/>
<path d="M579.088 431.683C579.407 431.935 579.796 432.083 580.202 432.108C580.607 432.133 581.011 432.034 581.359 431.823C581.796 431.412 582.09 430.872 582.199 430.281C582.559 429.03 582.85 427.76 583.07 426.477C583.128 425.918 583.298 425.376 583.57 424.884C584.3 423.763 585.881 423.703 587.111 423.192C588.632 422.369 589.891 421.134 590.743 419.628L590.052 419.488L590.703 418.486C590.548 418.393 590.418 418.264 590.322 418.111C590.226 417.958 590.166 417.785 590.149 417.605C590.131 417.425 590.156 417.244 590.221 417.075C590.286 416.907 590.389 416.756 590.523 416.634C589.939 416.323 589.283 416.174 588.622 416.203C588.832 415.823 588.492 415.342 588.082 415.202C587.658 415.113 587.222 415.09 586.791 415.132C586.152 415.079 585.525 414.931 584.93 414.691C580.669 413.23 576.047 411.938 571.705 413.169C569.787 413.763 567.993 414.703 566.413 415.943C564.884 416.803 563.741 418.215 563.219 419.89C562.696 421.565 562.833 423.377 563.602 424.955C564.257 426.582 564.727 428.278 565.002 430.011C565.067 431.638 564.885 433.265 564.462 434.837C565.647 435.218 566.872 435.457 568.113 435.548C569.363 435.644 570.605 435.289 571.615 434.547C572.615 433.686 573.176 432.354 573.996 431.273C574.311 430.796 574.741 430.406 575.246 430.14C575.752 429.874 576.316 429.74 576.887 429.751C577.998 429.921 578.198 431.052 579.088 431.683Z" fill="#3F3D56"/>
<path d="M550.156 620.805H538.441C538.095 620.875 537.783 621.063 537.559 621.337C537.335 621.61 537.212 621.953 537.212 622.307C537.212 622.661 537.335 623.004 537.559 623.278C537.783 623.552 538.095 623.74 538.441 623.809H540.782V643.705H500.696C500.603 643.549 500.473 643.418 500.318 643.323C500.163 643.229 499.987 643.174 499.805 643.164H488.101C487.754 643.234 487.442 643.421 487.218 643.695C486.994 643.969 486.872 644.312 486.872 644.666C486.872 645.02 486.994 645.363 487.218 645.637C487.442 645.91 487.754 646.098 488.101 646.168H490.441V666.604H451.736C451.701 666.326 451.573 666.068 451.374 665.871C451.174 665.675 450.914 665.552 450.635 665.523H438.94C438.584 665.581 438.261 665.764 438.027 666.039C437.794 666.314 437.666 666.664 437.666 667.025C437.666 667.386 437.794 667.735 438.027 668.01C438.261 668.285 438.584 668.468 438.94 668.527H440.111V689.553H400.765C400.618 689.47 400.453 689.426 400.284 689.423H388.58C388.233 689.493 387.921 689.681 387.697 689.955C387.473 690.228 387.351 690.571 387.351 690.925C387.351 691.279 387.473 691.622 387.697 691.896C387.921 692.17 388.233 692.357 388.58 692.427H389.75V712.453H350.904C350.82 712.255 350.681 712.086 350.504 711.966C350.326 711.845 350.118 711.778 349.904 711.772H338.199C337.852 711.842 337.54 712.029 337.316 712.303C337.092 712.577 336.97 712.92 336.97 713.274C336.97 713.628 337.092 713.971 337.316 714.245C337.54 714.518 337.852 714.706 338.199 714.776H339.369V736.954H604.008V620.805H550.156Z" fill="#3F3D56"/>
<path opacity="0.1" d="M173.091 236.613C171.935 235.086 170.624 233.684 169.18 232.428C168.787 232.086 168.479 231.658 168.28 231.177C168.081 230.697 167.996 230.176 168.032 229.657C168.068 229.138 168.224 228.634 168.487 228.185C168.75 227.737 169.114 227.355 169.55 227.071C170.03 226.76 170.5 226.43 170.97 226.07C176.433 221.914 179.194 216.337 177.123 213.604C175.052 210.87 168.94 212.032 163.477 216.187C162.846 216.657 162.241 217.161 161.667 217.699C161.282 218.045 160.823 218.297 160.326 218.436C159.828 218.575 159.305 218.597 158.797 218.5C158.29 218.403 157.811 218.19 157.4 217.877C156.988 217.564 156.654 217.161 156.424 216.698C155.657 215.192 154.756 213.757 153.733 212.412C148.871 206.004 142.349 202.77 139.157 205.193C135.966 207.616 137.306 214.785 142.158 221.213C143.107 222.469 144.161 223.642 145.31 224.718C145.689 225.088 145.977 225.541 146.149 226.042C146.321 226.544 146.373 227.078 146.301 227.603C146.229 228.129 146.035 228.629 145.734 229.066C145.433 229.502 145.034 229.861 144.569 230.115C138.567 233.549 135.176 238.726 136.876 241.7C138.577 244.673 144.8 244.303 150.752 240.879C151.674 240.343 152.563 239.751 153.413 239.106C153.813 238.801 154.277 238.59 154.769 238.487C155.262 238.384 155.771 238.392 156.26 238.511C156.748 238.63 157.205 238.857 157.595 239.174C157.985 239.492 158.299 239.893 158.515 240.348C159.327 242.123 160.333 243.802 161.516 245.354C166.368 251.763 172.901 254.997 176.092 252.574C179.284 250.15 177.943 243.031 173.091 236.613Z" fill="#0A62D0"/>
<path opacity="0.1" d="M881.702 409.645C882.831 408.098 883.793 406.437 884.573 404.689C884.783 404.213 885.101 403.794 885.501 403.463C885.902 403.132 886.373 402.899 886.879 402.783C887.385 402.666 887.911 402.669 888.415 402.791C888.92 402.913 889.389 403.152 889.786 403.487C890.226 403.847 890.686 404.198 891.156 404.548C896.718 408.553 902.861 409.555 904.862 406.801C906.863 404.048 903.981 398.511 898.419 394.485C897.752 394.012 897.085 393.581 896.418 393.194C895.976 392.925 895.602 392.558 895.326 392.12C895.049 391.683 894.877 391.187 894.824 390.672C894.771 390.157 894.837 389.637 895.018 389.152C895.199 388.667 895.49 388.231 895.868 387.877C897.085 386.707 898.19 385.427 899.169 384.052C903.881 377.534 905.062 370.345 901.821 368.032C898.579 365.719 892.117 369.033 887.405 375.591C886.485 376.857 885.672 378.196 884.974 379.596C884.731 380.068 884.382 380.475 883.954 380.787C883.525 381.098 883.03 381.305 882.507 381.39C881.985 381.474 881.449 381.435 880.945 381.275C880.44 381.115 879.98 380.838 879.601 380.468C874.599 375.772 868.597 373.989 866.286 376.462C863.975 378.936 866.116 384.803 871.128 389.479C871.907 390.2 872.732 390.869 873.599 391.482C874.006 391.777 874.343 392.159 874.584 392.601C874.825 393.043 874.964 393.533 874.992 394.036C875.02 394.539 874.935 395.041 874.744 395.507C874.554 395.973 874.261 396.39 873.889 396.728C872.421 398.045 871.103 399.519 869.957 401.124C865.246 407.642 864.065 414.832 867.316 417.144C870.568 419.457 876.99 416.173 881.702 409.645Z" fill="#0A62D0"/>
<path d="M886.824 747.648C905.499 747.648 920.638 744.734 920.638 741.14C920.638 737.545 905.499 734.631 886.824 734.631C868.15 734.631 853.01 737.545 853.01 741.14C853.01 744.734 868.15 747.648 886.824 747.648Z" fill="#0A62D0"/>
<path d="M886.264 743.533C888.441 743.533 890.206 741.224 890.206 738.376C890.206 735.528 888.441 733.22 886.264 733.22C884.087 733.22 882.323 735.528 882.323 738.376C882.323 741.224 884.087 743.533 886.264 743.533Z" fill="#3F3D56"/>
<path d="M886.264 737.225C888.441 737.225 890.206 734.916 890.206 732.068C890.206 729.22 888.441 726.911 886.264 726.911C884.087 726.911 882.323 729.22 882.323 732.068C882.323 734.916 884.087 737.225 886.264 737.225Z" fill="#3F3D56"/>
<path d="M886.264 730.927C888.441 730.927 890.206 728.618 890.206 725.77C890.206 722.922 888.441 720.613 886.264 720.613C884.087 720.613 882.323 722.922 882.323 725.77C882.323 728.618 884.087 730.927 886.264 730.927Z" fill="#3F3D56"/>
<path d="M886.264 724.618C888.441 724.618 890.206 722.31 890.206 719.462C890.206 716.614 888.441 714.305 886.264 714.305C884.087 714.305 882.323 716.614 882.323 719.462C882.323 722.31 884.087 724.618 886.264 724.618Z" fill="#3F3D56"/>
<path d="M886.264 718.31C888.441 718.31 890.206 716.002 890.206 713.154C890.206 710.306 888.441 707.997 886.264 707.997C884.087 707.997 882.323 710.306 882.323 713.154C882.323 716.002 884.087 718.31 886.264 718.31Z" fill="#3F3D56"/>
<path d="M886.264 712.012C888.441 712.012 890.206 709.704 890.206 706.856C890.206 704.008 888.441 701.699 886.264 701.699C884.087 701.699 882.323 704.008 882.323 706.856C882.323 709.704 884.087 712.012 886.264 712.012Z" fill="#3F3D56"/>
<path d="M886.264 705.704C888.441 705.704 890.206 703.396 890.206 700.548C890.206 697.7 888.441 695.391 886.264 695.391C884.087 695.391 882.323 697.7 882.323 700.548C882.323 703.396 884.087 705.704 886.264 705.704Z" fill="#3F3D56"/>
<path d="M901 657.402C901.534 656.714 902.022 655.992 902.461 655.24L892.127 653.537L903.311 653.627C904.387 651.29 904.975 648.758 905.036 646.185C905.098 643.613 904.634 641.055 903.671 638.668L888.665 646.458L902.511 636.275C901.208 634.043 899.462 632.102 897.379 630.573C895.296 629.044 892.922 627.959 890.404 627.387C887.885 626.814 885.275 626.765 882.737 627.243C880.199 627.722 877.786 628.717 875.648 630.167C873.509 631.617 871.692 633.491 870.307 635.673C868.922 637.856 868 640.299 867.598 642.853C867.196 645.406 867.322 648.016 867.969 650.518C868.616 653.021 869.769 655.364 871.358 657.402C870.522 658.472 869.801 659.626 869.207 660.847L882.643 667.856L868.317 663.05C867.309 666.021 867.056 669.197 867.579 672.29C868.103 675.384 869.388 678.299 871.318 680.772C869.131 683.557 867.772 686.9 867.394 690.422C867.016 693.943 867.636 697.499 869.183 700.685C870.729 703.87 873.14 706.556 876.139 708.435C879.139 710.314 882.606 711.31 886.144 711.31C889.682 711.31 893.15 710.314 896.149 708.435C899.148 706.556 901.559 703.87 903.105 700.685C904.652 697.499 905.272 693.943 904.894 690.422C904.517 686.9 903.157 683.557 900.97 680.772C903.582 677.444 905.001 673.334 905.001 669.102C905.001 664.87 903.582 660.761 900.97 657.432L901 657.402Z" fill="#0A62D0"/>
<path opacity="0.1" d="M867.316 669.067C867.304 673.298 868.713 677.41 871.318 680.742C869.131 683.527 867.772 686.87 867.394 690.392C867.016 693.913 867.636 697.47 869.183 700.655C870.729 703.84 873.14 706.526 876.139 708.405C879.139 710.284 882.606 711.28 886.144 711.28C889.682 711.28 893.149 710.284 896.149 708.405C899.148 706.526 901.559 703.84 903.105 700.655C904.652 697.47 905.272 693.913 904.894 690.392C904.517 686.87 903.157 683.527 900.97 680.742C903.521 677.528 867.316 666.955 867.316 669.067Z" fill="black"/>
<path d="M270.571 745.635C279.025 745.635 285.877 744.317 285.877 742.692C285.877 741.066 279.025 739.748 270.571 739.748C262.118 739.748 255.265 741.066 255.265 742.692C255.265 744.317 262.118 745.635 270.571 745.635Z" fill="#0A62D0"/>
<path d="M270.321 743.773C271.304 743.773 272.102 742.729 272.102 741.44C272.102 740.152 271.304 739.107 270.321 739.107C269.338 739.107 268.54 740.152 268.54 741.44C268.54 742.729 269.338 743.773 270.321 743.773Z" fill="#3F3D56"/>
<path d="M270.321 740.919C271.304 740.919 272.102 739.875 272.102 738.586C272.102 737.298 271.304 736.253 270.321 736.253C269.338 736.253 268.54 737.298 268.54 738.586C268.54 739.875 269.338 740.919 270.321 740.919Z" fill="#3F3D56"/>
<path d="M270.321 738.066C271.304 738.066 272.102 737.021 272.102 735.733C272.102 734.444 271.304 733.4 270.321 733.4C269.338 733.4 268.54 734.444 268.54 735.733C268.54 737.021 269.338 738.066 270.321 738.066Z" fill="#3F3D56"/>
<path d="M270.321 735.212C271.304 735.212 272.102 734.168 272.102 732.879C272.102 731.591 271.304 730.546 270.321 730.546C269.338 730.546 268.54 731.591 268.54 732.879C268.54 734.168 269.338 735.212 270.321 735.212Z" fill="#3F3D56"/>
<path d="M270.321 732.358C271.304 732.358 272.102 731.314 272.102 730.025C272.102 728.737 271.304 727.692 270.321 727.692C269.338 727.692 268.54 728.737 268.54 730.025C268.54 731.314 269.338 732.358 270.321 732.358Z" fill="#3F3D56"/>
<path d="M270.321 729.505C271.304 729.505 272.102 728.46 272.102 727.172C272.102 725.883 271.304 724.839 270.321 724.839C269.338 724.839 268.54 725.883 268.54 727.172C268.54 728.46 269.338 729.505 270.321 729.505Z" fill="#3F3D56"/>
<path d="M270.321 726.651C271.304 726.651 272.102 725.607 272.102 724.318C272.102 723.03 271.304 721.985 270.321 721.985C269.338 721.985 268.54 723.03 268.54 724.318C268.54 725.607 269.338 726.651 270.321 726.651Z" fill="#3F3D56"/>
<path d="M276.984 704.783C277.232 704.466 277.456 704.132 277.654 703.782L272.972 703.011H278.034C278.549 701.89 278.815 700.67 278.815 699.436C278.817 698.341 278.606 697.256 278.194 696.242L271.402 699.767L277.664 695.161C277.075 694.15 276.284 693.272 275.342 692.58C274.399 691.888 273.325 691.397 272.185 691.138C271.045 690.879 269.864 690.857 268.715 691.074C267.567 691.29 266.475 691.741 265.507 692.397C264.539 693.053 263.717 693.902 263.09 694.889C262.464 695.877 262.047 696.983 261.865 698.139C261.683 699.295 261.741 700.475 262.034 701.608C262.327 702.741 262.849 703.801 263.568 704.723C263.18 705.203 262.845 705.723 262.568 706.275L268.64 709.439L262.158 707.256C261.706 708.601 261.595 710.038 261.836 711.436C262.077 712.834 262.662 714.151 263.538 715.267C262.545 716.527 261.926 718.043 261.753 719.639C261.579 721.235 261.859 722.848 262.559 724.293C263.259 725.738 264.351 726.956 265.71 727.809C267.07 728.661 268.642 729.113 270.246 729.113C271.85 729.113 273.422 728.661 274.782 727.809C276.142 726.956 277.234 725.738 277.934 724.293C278.634 722.848 278.913 721.235 278.74 719.639C278.566 718.043 277.947 716.527 276.954 715.267C278.139 713.762 278.784 711.901 278.784 709.985C278.784 708.068 278.139 706.208 276.954 704.703L276.984 704.783Z" fill="#0A62D0"/>
<path opacity="0.1" d="M261.738 710.06C261.738 711.978 262.382 713.84 263.568 715.347C262.575 716.607 261.956 718.123 261.783 719.719C261.609 721.315 261.889 722.928 262.589 724.373C263.289 725.818 264.381 727.036 265.74 727.889C267.1 728.741 268.672 729.193 270.276 729.193C271.881 729.193 273.452 728.741 274.812 727.889C276.172 727.036 277.264 725.818 277.964 724.373C278.664 722.928 278.943 721.315 278.77 719.719C278.596 718.123 277.978 716.607 276.984 715.347C278.134 713.925 261.738 709.099 261.738 710.06Z" fill="black"/>
<path d="M805.265 480.205C804.26 474.647 806.791 470.014 809.139 465.333C808.572 470.48 808.173 475.671 805.265 480.205ZM820.118 450.241C819.812 450.383 819.556 450.633 819.283 450.842C817.284 452.369 815.287 453.898 812.955 455.681C813.207 454.827 813.32 454.409 813.454 453.998C814.865 449.709 816.322 445.435 817.658 441.123C817.951 440.177 817.904 439.094 817.852 438.082C817.805 437.172 817.148 436.79 816.286 437.076C815.695 437.272 814.985 437.513 814.636 437.969C812.231 441.118 809.44 444.007 808.063 447.857C807.045 450.701 802.737 453.225 799.535 452.66C799.967 451.303 800.109 449.812 800.847 448.725C803.553 444.745 806.468 440.907 809.265 436.988C809.514 436.639 809.474 436.083 809.568 435.623C808.955 435.569 808.319 435.394 807.738 435.507C807.378 435.577 807.063 436.052 806.796 436.398C805.026 438.693 803.08 440.883 801.562 443.337C799.089 447.335 795.476 450.263 792.391 453.682C791.506 454.663 790.534 454.435 790.176 453.16C789.887 452.132 789.687 450.905 789.972 449.917C792.151 442.39 796.082 435.689 800.088 429.033C800.374 428.558 800.638 428.069 800.915 427.58C798.93 426.659 797.502 427.14 796.356 428.692C795.685 429.601 794.962 430.472 794.301 431.389C791.256 435.617 788.255 439.875 785.181 444.082C783.078 446.959 780.881 449.768 778.727 452.608C780.952 442.831 785.542 434.096 789.853 425.247C788.238 424.576 787.843 424.65 786.686 426.13C776.512 439.142 766.353 452.165 756.195 465.188C756.009 465.427 755.9 465.725 755.755 465.996C756.505 466.063 757.177 465.975 757.581 465.6C758.802 464.468 760.045 463.322 761.055 462.009C768.386 452.48 775.661 442.91 782.954 433.352C782.829 433.891 782.762 434.454 782.553 434.96C781.563 437.366 780.435 439.72 779.533 442.158C778 446.297 776.593 450.483 775.149 454.655C774.805 455.649 774.795 456.702 775.742 457.322C776.741 457.976 777.654 457.34 778.362 456.633C779.086 455.908 779.748 455.102 780.332 454.259C784.529 448.199 788.698 442.12 792.882 436.05C793.109 435.721 793.389 435.428 793.817 434.908C792.157 438.835 790.583 442.472 789.084 446.141C788.418 447.774 787.855 449.455 787.334 451.141C786.642 453.38 787.172 455.3 788.663 456.325C790.064 457.29 791.7 457.093 793.678 455.604C794.646 454.875 795.512 454.009 796.435 453.194C798.023 456.048 799.758 456.493 802.517 454.826C804.031 453.911 805.547 452.998 807.084 452.124C807.383 451.954 807.952 451.775 808.109 451.918C808.967 452.695 809.542 452.052 810.175 451.624C810.763 451.225 811.344 450.814 811.928 450.408C810.983 454.778 810.352 459.103 808.351 463.06C807.002 465.727 805.802 468.482 804.728 471.272C803.447 474.599 802.854 478.073 803.05 481.669C803.119 482.941 803.758 483.875 804.856 484.02C805.504 484.105 806.576 483.451 806.928 482.829C807.809 481.275 808.649 479.609 809.038 477.882C810.065 473.336 810.895 468.743 811.702 464.151C812.302 460.739 813.26 457.534 816.027 455.206C817.191 454.227 818.469 453.383 819.652 452.425C820.137 452.032 820.547 451.528 820.908 451.016C821.015 450.864 820.911 450.459 820.768 450.273C820.679 450.157 820.302 450.156 820.118 450.241Z" fill="black"/>
<path d="M969.353 440.572C969.123 440.191 968.014 440.276 967.301 440.274C966.774 440.272 966.244 440.572 965.719 440.56C963.364 440.508 961.007 440.441 958.656 440.292C951.644 439.848 944.636 439.336 937.624 438.904C934.239 438.695 933.877 438.364 933.95 434.949C933.955 434.703 934.032 434.417 933.935 434.219C933.55 433.439 933.109 432.688 932.689 431.925C931.986 432.429 931.174 432.833 930.605 433.458C929.591 434.573 928.741 435.836 927.777 436.999C927.608 437.202 927.212 437.219 926.921 437.321C926.908 437.015 926.781 436.654 926.899 436.411C927.5 435.176 928.264 434.01 928.759 432.737C928.964 432.211 928.849 431.121 928.51 430.926C928.005 430.635 927.072 430.711 926.511 430.999C925.965 431.282 925.607 431.997 925.254 432.575C923.496 435.448 921.041 437.487 917.904 438.669C917.375 438.869 916.462 438.924 916.151 438.617C915.757 438.228 915.661 437.393 915.689 436.762C915.716 436.152 916.067 435.556 916.273 434.952C916.908 433.087 916.703 432.595 915.184 431.459C913.861 430.47 912.795 430.922 911.775 431.877C911.095 432.513 910.523 433.272 909.807 433.861C908.264 435.129 906.746 436.467 905.046 437.491C904.101 438.059 902.82 438.119 901.672 438.285C900.768 438.416 900.38 437.836 900.629 437.008C900.877 436.18 901.209 435.356 901.641 434.61C902.204 433.637 902.307 431.875 901.589 431.482C900.47 430.87 899.682 431.608 899.161 432.47C898.276 433.93 897.499 435.457 896.715 436.976C895.657 439.024 894.178 440.59 891.911 441.265C890.662 441.637 890.03 441.038 890.299 439.764C890.369 439.43 890.504 439.107 890.638 438.791C891.611 436.485 892.569 434.172 893.58 431.884C894.036 430.85 893.646 430.232 892.797 429.67C891.812 429.02 891.607 429.95 891.243 430.417C890.702 431.111 890.222 431.863 889.791 432.633C887.146 437.361 884.215 441.891 880.718 446.043C877.268 450.139 873.962 454.361 870.387 458.343C865.135 464.193 859.679 469.858 854.362 475.652C853.151 476.972 852.157 478.493 851.068 479.915C852.509 481.045 852.972 480.963 853.894 479.849C857.874 475.042 861.694 470.083 865.93 465.511C873.182 457.685 880.718 450.122 886.728 441.239C886.817 441.108 886.997 441.039 887.252 440.858C887.363 441.371 887.448 441.745 887.523 442.12C887.983 444.441 888.971 445.069 891.18 444.173C892.672 443.568 894.09 442.746 895.462 441.893C896.51 441.241 897.411 440.814 898.696 441.407C899.378 441.722 900.339 441.587 901.141 441.454C902.471 441.233 903.774 440.85 905.05 440.545C905.894 442.388 906.617 442.827 908.151 442.268C908.954 441.975 909.67 441.403 910.372 440.886C911.033 440.4 911.626 439.821 912.393 439.158C914.28 442.035 916.662 441.643 919.19 440.413C920.378 439.834 921.596 439.317 922.83 438.759C922.961 438.975 923.091 439.129 923.157 439.306C924.012 441.603 924.721 441.909 926.977 440.77C928.154 440.176 929.252 439.424 930.545 438.647C931.843 441.315 933.774 442.459 936.614 441.667C936.751 441.629 936.908 441.657 937.056 441.661C944.967 441.881 952.88 442.055 960.788 442.353C962.835 442.43 965.066 442.12 966.716 443.929C966.933 444.167 967.512 444.293 967.822 444.184C968.517 443.941 969.554 443.643 969.711 443.138C969.949 442.367 969.777 441.272 969.353 440.572Z" fill="black"/>
<path d="M860.25 426.827C859.197 430.166 857.88 433.327 856.682 436.532C855.427 439.887 854.264 443.277 853.104 446.667C852.662 447.96 852.962 448.43 854.257 448.153C855.116 447.97 855.887 447.241 856.626 446.667C857.732 445.809 858.717 444.786 859.865 443.995C860.75 443.385 861.32 443.724 861.598 444.863C862.32 447.818 863.159 450.745 863.991 453.671C864.112 454.099 864.363 454.679 864.707 454.823C866.054 455.387 867.594 454.479 867.806 453.048C867.957 452.031 867.954 450.991 868.097 449.972C868.347 448.182 868.406 446.315 868.98 444.629C872.288 434.922 877.612 426.565 885.978 420.408C887.024 419.638 888.502 419.476 889.728 418.918C890.329 418.645 891.105 418.192 891.252 417.666C891.368 417.251 890.769 416.398 890.271 416.094C888.907 415.263 887.54 415.728 886.486 416.72C883.055 419.952 879.419 423.026 876.374 426.598C871.58 432.222 868.589 438.948 865.926 445.795C865.695 446.387 865.46 446.977 865.09 447.914C863.717 441.592 862.729 440.802 857.616 441.711C857.746 441.201 857.818 440.726 857.985 440.288C859.705 435.798 861.45 431.316 863.161 426.822C863.402 426.191 863.691 425.484 863.615 424.854C863.541 424.242 863.137 423.536 862.653 423.166C862.425 422.992 861.596 423.411 861.172 423.735C860.677 424.113 860.278 424.647 859.922 425.171C854.678 432.894 849.463 440.637 844.196 448.344C843.567 449.265 842.675 450.006 841.905 450.83C841.554 450.316 841.498 450.034 841.525 449.759C841.95 445.552 842.419 441.359 844.24 437.452C844.735 436.392 845.181 435.268 845.371 434.127C845.456 433.613 844.86 432.985 844.572 432.409C844.137 432.648 843.582 432.789 843.286 433.144C841.368 435.448 839.553 437.839 837.61 440.12C836.29 441.67 834.815 443.087 833.41 444.564C833.304 444.485 833.197 444.407 833.09 444.328C833.286 443.79 833.464 443.245 833.681 442.716C836.296 436.36 838.928 430.011 841.51 423.642C841.686 423.21 841.498 422.63 841.479 422.12C840.794 422.166 840.023 422.037 839.452 422.316C839.009 422.531 838.727 423.223 838.525 423.76C835.752 431.161 833.004 438.57 830.26 445.982C830.108 446.392 829.883 446.882 829.985 447.254C830.169 447.918 830.452 448.659 830.939 449.089C831.198 449.318 832.129 449.142 832.488 448.836C833.934 447.603 835.424 446.37 836.616 444.907C837.943 443.278 838.956 441.394 840.124 439.632C840.443 439.153 840.829 438.718 841.183 438.263C840.958 439.833 840.516 441.232 840.13 442.646C839.282 445.751 838.82 448.915 839.283 452.116C839.391 452.858 840.059 453.906 840.679 454.084C841.387 454.288 842.409 453.812 843.144 453.378C843.743 453.023 844.188 452.338 844.584 451.725C846.023 449.497 847.426 447.246 848.817 444.989C852.422 439.138 856.011 433.277 859.619 427.428C859.766 427.189 860.037 427.025 860.25 426.827Z" fill="black"/>
<defs>
<linearGradient id="paint0_linear" x1="572.165" y1="733.65" x2="572.165" y2="113.856" gradientUnits="userSpaceOnUse">
<stop stop-color="#808080" stop-opacity="0.25"/>
<stop offset="0.54" stop-color="#808080" stop-opacity="0.12"/>
<stop offset="1" stop-color="#808080" stop-opacity="0.1"/>
</linearGradient>
<linearGradient id="paint1_linear" x1="-5448.13" y1="2447.12" x2="-5412.12" y2="2447.12" gradientUnits="userSpaceOnUse">
<stop stop-color="#808080" stop-opacity="0.25"/>
<stop offset="0.54" stop-color="#808080" stop-opacity="0.12"/>
<stop offset="1" stop-color="#808080" stop-opacity="0.1"/>
</linearGradient>
<linearGradient id="paint2_linear" x1="67534.9" y1="146069" x2="67534.9" y2="101960" gradientUnits="userSpaceOnUse">
<stop stop-color="#808080" stop-opacity="0.25"/>
<stop offset="0.54" stop-color="#808080" stop-opacity="0.12"/>
<stop offset="1" stop-color="#808080" stop-opacity="0.1"/>
</linearGradient>
</defs>
</svg>
