<?xml version="1.0"?>
<svg xmlns="http://www.w3.org/2000/svg" xmlns:xlink="http://www.w3.org/1999/xlink" xmlns:svgjs="http://svgjs.com/svgjs" version="1.1" width="512" height="512" x="0" y="0" viewBox="0 0 512 512" style="enable-background:new 0 0 512 512" xml:space="preserve" class=""><g><g xmlns="http://www.w3.org/2000/svg"><path d="m256 372 173.2-111.2v-192.4h-346.4v192.4z" fill="#e0e5e9" data-original="#f3f5f9" style="" class=""/><path d="m505.2 504.8h-498v-292.8l248.8 160 249.2-160z" fill="#f3d849" data-original="#ffd830" style="" class=""/><path d="m115.2 100.4h282v137.6h-282z" fill="#0a62d0" data-original="#4d5680" style="" class=""/><g fill="#fab049"><path d="m330.4 68.4-74.4-61.6-74.4 61.6z" fill="#fab049" data-original="#fab049" style="" class=""/><path d="m82.8 149.6-75.6 62.4 75.6 48.8z" fill="#fab049" data-original="#fab049" style="" class=""/><path d="m429.2 149.6v111.2l76-48.8z" fill="#fab049" data-original="#fab049" style="" class=""/></g></g><path xmlns="http://www.w3.org/2000/svg" d="m385.2 289.2c2 3.2 1.2 7.6-2 9.6l-6.4 4c-3.2 2-7.6 1.2-9.6-2s-1.2-7.6 2-9.6l6.4-4c3.2-2.4 7.2-1.2 9.6 2zm119.6 222.8h-497.6c-4 0-6.8-3.2-6.8-6.8v-293.2c0-2.8 1.017-4.156 2.4-5.6 16.367-17.088 73.2-60 73.2-60v-78c0-4 3.2-6.8 6.8-6.8h96l72.8-60c2.4-2 6.4-2 8.8 0l72.4 59.6h96c4 0 6.8 3.2 6.8 6.8v78l73.2 60.4c1.2 1.2 2.4 3.2 2.4 5.6v292.8c.8 3.6-2 7.2-6.4 7.2zm-68.8-347.6v83.6c.8-.4 56.4-36.4 57.2-36.8zm-234.8-102.8h110l-55.2-45.2zm-111.2 88v107.6l166 106.4 82.8-53.2c3.2-2 7.6-1.2 9.6 2s1.2 7.6-2 9.6l-20 12.8 171.6 154v-264c-89.2 57.2-84.8 54.4-84.8 54.4-3.2 2-7.6 1.2-9.6-2s-1.2-7.6 2-9.6l16.4-10.4v-181.6h-332zm-76 339.6 171.6-154s-164.8-106-171.6-110.4zm11.6 8.8h461.2l-172.4-155.2-54.4 35.2c-2.4 1.6-5.2 1.6-7.6 0l-54.4-35.2zm-6.4-286.8c.4.8 56.4 36.4 56.8 36.8v-83.6zm96 33.6h282c4 0 6.8-3.2 6.8-6.8v-137.6c0-4-3.2-6.8-6.8-6.8h-194.4c-4 0-6.8 3.2-6.8 6.8 0 4 3.2 6.8 6.8 6.8h186.8v123.6h-268v-123.2h34.8c4 0 6.8-3.2 6.8-6.8 0-4-3.2-6.8-6.8-6.8h-41.2c-4 0-6.8 3.2-6.8 6.8v137.6c-.4 3.2 2.8 6.4 6.8 6.4zm57.6-105.6h19.2v42.4c0 9.2-7.6 16.8-16.8 16.8h-28c-4 0-6.8 3.2-6.8 6.8s3.2 6.8 6.8 6.8h28c17.2 0 30.8-14 30.8-30.8v-48.8c0-4-3.2-6.8-6.8-6.8h-26c-4 0-6.8 3.2-6.8 6.8s2.8 6.8 6.4 6.8zm69.2 73.6c-10.4 0-18.8-8.4-18.8-18.8v-49.6c0-10.4 8.4-18.8 18.8-18.8h28c10.4 0 18.8 8.4 18.8 18.8v49.6c0 10.4-8.4 18.8-18.8 18.8zm0-14h28c2.8 0 4.8-2.4 4.8-4.8v-49.6c0-2.8-2.4-4.8-4.8-4.8h-28c-2.8 0-4.8 2.4-4.8 4.8v49.6c0 2.8 2 4.8 4.8 4.8zm130-45.6c0 6-2.4 11.6-6.4 16 4 4.4 6.4 10 6.4 16v4.8c0 12.8-10.4 22.8-22.8 22.8h-36c-4 0-6.8-3.2-6.8-6.8v-73.6c0-4 3.2-6.8 6.8-6.8h36c12.8 0 22.8 10.4 22.8 22.8zm-52 8.8h28.8c4.8 0 8.8-4 8.8-8.8v-4.8c0-4.8-4-8.8-8.8-8.8h-28.8zm29.2 14.4h-29.2v22.8h28.8c4.8 0 8.8-4 8.8-8.8 0 0 0-4 0-5.2 0-3.6-3.6-8.8-8.4-8.8zm-17.6 91.2h-151.2c-4 0-6.8 3.2-6.8 6.8 0 4 3.2 6.8 6.8 6.8h150.8c4 0 6.8-3.2 6.8-6.8.4-3.6-2.8-6.8-6.4-6.8zm-52 39.2h-47.2c-4 0-6.8 3.2-6.8 6.8s3.2 6.8 6.8 6.8h46.8c4 0 6.8-3.2 6.8-6.8s-2.8-6.8-6.4-6.8z" fill="#191718" data-original="#000000" style="" class=""/></g></svg>
