<?xml version="1.0"?>
<svg xmlns="http://www.w3.org/2000/svg" xmlns:xlink="http://www.w3.org/1999/xlink" xmlns:svgjs="http://svgjs.com/svgjs" version="1.1" width="512" height="512" x="0" y="0" viewBox="0 0 64 64" style="enable-background:new 0 0 512 512" xml:space="preserve" class=""><g><g xmlns="http://www.w3.org/2000/svg" id="technician"><path d="m15.1 26.86 9.44 10.14h-5.54a3.879 3.879 0 0 0 -1.49.29l-6.65-6.19z" fill="#c6c5ca" data-original="#c6c5ca" style="" class=""/><path d="m17.03 28.93-4.1 4.1-2.07-1.93 4.24-4.24z" fill="#acabb1" data-original="#acabb1" style=""/><path d="m10.86 21.2 4.24 5.66-4.24 4.24-5.66-4.24-2.12-4.95 2.83-2.83z" fill="#c6c5ca" data-original="#c6c5ca" style="" class=""/><path d="m19 37h26a4 4 0 0 1 4 4v18a2 2 0 0 1 -2 2h-30a2 2 0 0 1 -2-2v-18a4 4 0 0 1 4-4z" fill="#0a62d0" data-original="#00d7df" style="" class=""/><path d="m49 41v18a2.006 2.006 0 0 1 -2 2h-30a2.006 2.006 0 0 1 -2-2v-2h18a12 12 0 0 0 12-12v-8a4 4 0 0 1 4 4z" fill="#136ecf" data-original="#00b6bd" style="" class=""/><path d="m61.33 25.32a8.063 8.063 0 0 1 -2.12 7.78 8.827 8.827 0 0 1 -9.19 2.12l-2.6 2.6a4.012 4.012 0 0 0 -2.42-.82h-5.24l6.02-6.02c-1.42-2.83-.26-6.82 2.12-9.19a8.063 8.063 0 0 1 7.78-2.12l-4.24 5.65 4.24 4.24z" fill="#c6c5ca" data-original="#c6c5ca" style="" class=""/><path d="m61 51-1.98.49 1.05 1.75-2.83 2.83-1.75-1.05-.49 1.98h-4l-.49-1.98-1.51.91-.24.14-2.83-2.83 1.05-1.75-1.98-.49v-4l1.98-.49-1.05-1.75 2.83-2.83.24.14 1.51.91.49-1.98h4l.49 1.98 1.75-1.05 2.83 2.83-1.05 1.75 1.98.49z" fill="#b39a7c" data-original="#b39a7c" style="" class=""/><circle cx="53" cy="49" fill="#ffcd00" r="3" data-original="#ffcd00" style="" class=""/><path d="m44 19v1a2.006 2.006 0 0 1 -2 2h-1v-5h1a2.006 2.006 0 0 1 2 2z" fill="#ffb655" data-original="#ffb655" style="" class=""/><path d="m44 3v7a5.985 5.985 0 0 1 -3 5.19v-1.19l-5.64-1.54a5.463 5.463 0 0 1 -1.36 1.54c-2 1.55-4.85 1.47-5 1-.07-.22.48-.44 1-1a5.27 5.27 0 0 0 1-3h-1l-7 3v2a3 3 0 0 1 -3-3v-2a8 8 0 0 1 8-8z" fill="#f7c700" data-original="#ffde55" style="" class=""/><path d="m41 17v5a8.981 8.981 0 0 1 -6 8.48 8.914 8.914 0 0 1 -6 0 8.981 8.981 0 0 1 -6-8.48v-8l7-3h1a5.27 5.27 0 0 1 -1 3c-.52.56-1.07.78-1 1 .15.47 3 .55 5-1a5.463 5.463 0 0 0 1.36-1.54l5.64 1.54z" fill="#ffdaaa" data-original="#ffdaaa" style="" class=""/><path d="m24 61v-4l1.98-.49-1.05-1.75 2.83-2.83 1.75 1.05.49-1.98h4l.49 1.98 1.75-1.05 2.83 2.83-1.05 1.75 1.98.49v4" fill="#c0ab91" data-original="#c0ab91" style="" class=""/><path d="m40 57v4h-16v-4h9a12 12 0 0 0 5.54-1.35l-.52.86z" fill="#b39a7c" data-original="#b39a7c" style="" class=""/><path d="m39 37-7 4-7-4 4-3v-3.52a8.914 8.914 0 0 0 6 0v3.52z" fill="#ffdaaa" data-original="#ffdaaa" style="" class=""/><path d="m35 59a2.965 2.965 0 0 1 -.77 2h-4.46a2.965 2.965 0 0 1 -.77-2 3 3 0 0 1 6 0z" fill="#f7c700" data-original="#ffde55" style="" class=""/><path d="m35 59a2.965 2.965 0 0 1 -.77 2h-4.46a2.982 2.982 0 0 1 0-4h3.23a11.172 11.172 0 0 0 1.17-.06 2.971 2.971 0 0 1 .83 2.06z" fill="#ffcd00" data-original="#ffcd00" style="" class=""/><path d="m35 59a2.965 2.965 0 0 1 -.77 2h-4.46a2.982 2.982 0 0 1 0-4h3.23a11.172 11.172 0 0 0 1.17-.06 2.971 2.971 0 0 1 .83 2.06z" fill="#ffcd00" data-original="#ffcd00" style="" class=""/><path d="m17.03 28.93-4.1 4.1-2.07-1.93 4.24-4.24z" fill="#898890" data-original="#898890" style=""/><path d="m23 17v5h-1a2.006 2.006 0 0 1 -2-2v-1a2.006 2.006 0 0 1 2-2z" fill="#ffb655" data-original="#ffb655" style="" class=""/><path d="m19 51-1.98.49 1.05 1.75-2.83 2.83-.24-.14-1.51-.91-.49 1.98h-4l-.49-1.98-1.75 1.05-2.83-2.83 1.05-1.75-1.98-.49v-4l1.98-.49-1.05-1.75 2.83-2.83 1.75 1.05.49-1.98h4l.49 1.98 1.51-.91.24-.14 2.83 2.83-1.05 1.75 1.98.49z" fill="#c0ab91" data-original="#c0ab91" style="" class=""/><circle cx="11" cy="49" fill="#f7c700" r="3" data-original="#ffde55" style="" class=""/><path d="m41 14v8a9 9 0 0 1 -6 8.48 8.914 8.914 0 0 1 -6 0 9.044 9.044 0 0 1 -4.31-3.23 8.991 8.991 0 0 0 2.31 1.23 8.914 8.914 0 0 0 6 0 9 9 0 0 0 6-8.48v-6.55z" fill="#ffc477" data-original="#ffc477" style="" class=""/><path d="m44 3v7a5.985 5.985 0 0 1 -3 5.19v-1.19l-.43-.12a5.957 5.957 0 0 0 1.43-3.88v-7z" fill="#ffcd00" data-original="#ffcd00" style="" class=""/><path d="m39 37-7 4-1-.57 6-3.43-4-3v-3.06a8.431 8.431 0 0 0 2-.46v3.52z" fill="#ffc477" data-original="#ffc477" style="" class=""/><path d="m53 45a4 4 0 1 0 4 4 4 4 0 0 0 -4-4zm0 6a2 2 0 1 1 2-2 2 2 0 0 1 -2 2z" fill="#000000" data-original="#000000" style="" class=""/><path d="m61.24 46.03-.67-.17.36-.59a1 1 0 0 0 -.15-1.22l-2.83-2.83a1.012 1.012 0 0 0 -1.22-.15l-.59.36-.17-.67a1 1 0 0 0 -.97-.76h-4a1 1 0 0 0 -.97.76l-.04.15a4.987 4.987 0 0 0 -1.16-3.09l1.45-1.44a9.94 9.94 0 0 0 9.64-2.57 9.028 9.028 0 0 0 2.37-8.75.986.986 0 0 0 -.64-.69 1.009 1.009 0 0 0 -.92.15l-4.96 3.72-3.01-3.01 3.72-4.96a1.009 1.009 0 0 0 .15-.92.986.986 0 0 0 -.69-.64 9.028 9.028 0 0 0 -8.75 2.37c-2.64 2.64-3.69 6.66-2.6 9.67l-5.24 5.25h-.02l-3.33-2.5v-2.34a10.024 10.024 0 0 0 5.95-8.16h.05a3.009 3.009 0 0 0 3-3v-1a3.009 3.009 0 0 0 -3-3v-.28a7 7 0 0 0 3-5.72v-7a1 1 0 0 0 -1-1h-16a9.014 9.014 0 0 0 -9 9v2a4.008 4.008 0 0 0 1.73 3.29 3 3 0 0 0 -1.73 2.71v1a3.009 3.009 0 0 0 3 3h.05a10.024 10.024 0 0 0 5.95 8.16v2.34l-3.15 2.36-8.97-9.63-4.22-5.63a1.065 1.065 0 0 0 -.41-.32l-4.95-2.12a1 1 0 0 0 -1.1.21l-2.83 2.83a1 1 0 0 0 -.21 1.1l2.12 4.95a1.065 1.065 0 0 0 .32.41l5.63 4.22 5.64 5.25a4.976 4.976 0 0 0 -1.86 3.78l-.04-.15a1 1 0 0 0 -.97-.76h-4a1 1 0 0 0 -.97.76l-.17.67-.59-.36a1.014 1.014 0 0 0 -1.22.15l-2.83 2.83a1.012 1.012 0 0 0 -.15 1.22l.36.59-.67.17a1 1 0 0 0 -.76.97v4a1 1 0 0 0 .76.97l.67.17-.36.59a1 1 0 0 0 .15 1.22l2.83 2.83a1 1 0 0 0 1.22.15l.59-.36.17.67a1 1 0 0 0 .97.76h4a1 1 0 0 0 .97-.76l.03-.12v1.88a3.009 3.009 0 0 0 3 3h30a3.009 3.009 0 0 0 3-3v-1.88l.03.12a1 1 0 0 0 .97.76h4a1 1 0 0 0 .97-.76l.17-.67.59.36a1 1 0 0 0 1.22-.15l2.83-2.83a1 1 0 0 0 .15-1.22l-.36-.59.67-.17a1 1 0 0 0 .76-.97v-4a1 1 0 0 0 -.76-.97zm-14.75-14.34a1 1 0 0 0 .18-1.16c-1.14-2.28-.29-5.81 1.94-8.03a7.023 7.023 0 0 1 5.27-2.1l-3.24 4.32a1 1 0 0 0 .09 1.31l4.24 4.24a1 1 0 0 0 1.31.09l4.32-3.24a7.038 7.038 0 0 1 -2.1 5.27 7.821 7.821 0 0 1 -8.09 1.91 1 1 0 0 0 -1.1.21l-2.05 2.06a4.916 4.916 0 0 0 -2.26-.57h-2.83zm-3.49-12.69v1a1 1 0 0 1 -1 1v-3a1 1 0 0 1 1 1zm-21 2a1 1 0 0 1 -1-1v-1a1 1 0 0 1 1-1zm0-7v.72a1.988 1.988 0 0 1 -1-1.72v-2a7.008 7.008 0 0 1 7-7h15v6a4.971 4.971 0 0 1 -1.28 3.32.942.942 0 0 0 -.46-.28l-5.64-1.54a.983.983 0 0 0 -1.11.44 4.485 4.485 0 0 1 -1.12 1.27 5.479 5.479 0 0 1 -2.28.99 7.362 7.362 0 0 0 .89-3.11 1 1 0 0 0 -1-1.09h-1a1.006 1.006 0 0 0 -.39.08l-7 3a1 1 0 0 0 -.61.92zm2 8v-7.34l5.8-2.48a2.94 2.94 0 0 1 -.53 1.14 5.038 5.038 0 0 1 -.52.45 1.4 1.4 0 0 0 -.7 1.53 1.332 1.332 0 0 0 .95.86 7.2 7.2 0 0 0 5.6-1.36 6.049 6.049 0 0 0 1.18-1.19l4.22 1.15v7.24a8 8 0 0 1 -16 0zm5.6 12.8a1.014 1.014 0 0 0 .4-.8v-2.2a10.1 10.1 0 0 0 4 0v2.2a1.014 1.014 0 0 0 .4.8l2.78 2.09-5.18 2.96-5.18-2.96zm-23.58-8.58-1.75-4.08 1.87-1.87 4.08 1.75 3.56 4.74-3.02 3.02zm6.28 4.85 2.77-2.77 7.17 7.7h-3.24a5 5 0 0 0 -1.23.17zm1.71 23.09a1.019 1.019 0 0 0 -.9-.06 1.007 1.007 0 0 0 -.59.68l-.3 1.22h-2.44l-.3-1.22a1.007 1.007 0 0 0 -.59-.68 1.019 1.019 0 0 0 -.9.06l-1.08.65-1.72-1.72.65-1.08a1.019 1.019 0 0 0 .06-.9 1.007 1.007 0 0 0 -.68-.59l-1.22-.3v-2.44l1.22-.3a1.007 1.007 0 0 0 .68-.59 1.019 1.019 0 0 0 -.06-.9l-.65-1.08 1.72-1.72 1.08.64a.989.989 0 0 0 .9.07 1.007 1.007 0 0 0 .59-.68l.3-1.22h2.44l.3 1.22a1.007 1.007 0 0 0 .59.68.989.989 0 0 0 .9-.07l1.08-.64 1.72 1.72-.65 1.08a1.019 1.019 0 0 0 -.06.9 1.007 1.007 0 0 0 .68.59l1.22.3v2.44l-1.22.3a1.007 1.007 0 0 0 -.68.59 1.019 1.019 0 0 0 .06.9l.65 1.08-1.72 1.72zm19.72 5.84h-3.46a2 2 0 1 1 3.46 0zm5.27 0h-3.14a4.231 4.231 0 0 0 .14-1 4 4 0 0 0 -8 0 4.231 4.231 0 0 0 .14 1h-3.14v-2.22l1.22-.3a.984.984 0 0 0 .68-.59 1 1 0 0 0 -.06-.89l-.65-1.08 1.73-1.73 1.08.65a.967.967 0 0 0 .89.06.984.984 0 0 0 .59-.68l.3-1.22h2.44l.3 1.22a.984.984 0 0 0 .59.68 1 1 0 0 0 .89-.06l1.08-.65 1.73 1.73-.65 1.08a1 1 0 0 0 -.06.89.984.984 0 0 0 .68.59l1.22.3zm9-1a1 1 0 0 1 -1 1h-6v-3a1 1 0 0 0 -.76-.97l-.67-.17.36-.59a1.014 1.014 0 0 0 -.15-1.22l-2.83-2.83a1.014 1.014 0 0 0 -1.22-.15l-.59.36-.17-.67a1 1 0 0 0 -.97-.76h-4a1 1 0 0 0 -.97.76l-.17.67-.59-.36a1.014 1.014 0 0 0 -1.22.15l-2.83 2.83a1.014 1.014 0 0 0 -.15 1.22l.36.59-.67.17a1 1 0 0 0 -.76.97v3h-6a1 1 0 0 1 -1-1v-2.27l2.78-2.78a1.012 1.012 0 0 0 .15-1.22l-.36-.59.67-.17a1 1 0 0 0 .76-.97v-4a1 1 0 0 0 -.76-.97l-.67-.17.36-.59a1 1 0 0 0 -.15-1.22l-2.78-2.78v-.27a3.009 3.009 0 0 1 3-3h5.73l6.77 3.87a1.044 1.044 0 0 0 1 0l6.77-3.87h5.73a3.009 3.009 0 0 1 3 3v.27l-2.78 2.78a1 1 0 0 0 -.15 1.22l.36.59-.67.17a1 1 0 0 0 -.76.97v4a1 1 0 0 0 .76.97l.67.17-.36.59a1 1 0 0 0 .15 1.22l2.78 2.78zm12-8.78-1.22.3a1.007 1.007 0 0 0 -.68.59 1.019 1.019 0 0 0 .06.9l.65 1.08-1.72 1.72-1.08-.65a1.019 1.019 0 0 0 -.9-.06 1.007 1.007 0 0 0 -.59.68l-.3 1.22h-2.44l-.3-1.22a1.007 1.007 0 0 0 -.59-.68 1.019 1.019 0 0 0 -.9.06l-1.08.65-1.72-1.72.65-1.08a1.019 1.019 0 0 0 .06-.9 1.007 1.007 0 0 0 -.68-.59l-1.22-.3v-2.44l1.22-.3a1.007 1.007 0 0 0 .68-.59 1.019 1.019 0 0 0 -.06-.9l-.65-1.08 1.72-1.72 1.08.64a.989.989 0 0 0 .9.07 1.007 1.007 0 0 0 .59-.68l.3-1.22h2.44l.3 1.22a1.007 1.007 0 0 0 .59.68.989.989 0 0 0 .9-.07l1.08-.64 1.72 1.72-.65 1.08a1.019 1.019 0 0 0 -.06.9 1.007 1.007 0 0 0 .68.59l1.22.3z" fill="#000000" data-original="#000000" style="" class=""/><path d="m11 45a4 4 0 1 0 4 4 4 4 0 0 0 -4-4zm0 6a2 2 0 1 1 2-2 2 2 0 0 1 -2 2z" fill="#000000" data-original="#000000" style="" class=""/></g></g></svg>
