<?xml version="1.0"?>
<svg xmlns="http://www.w3.org/2000/svg" xmlns:xlink="http://www.w3.org/1999/xlink" xmlns:svgjs="http://svgjs.com/svgjs" version="1.1" width="512" height="512" x="0" y="0" viewBox="0 0 512 512" style="enable-background:new 0 0 512 512" xml:space="preserve" class=""><g><path xmlns="http://www.w3.org/2000/svg" d="m377 0h-121l-60 256 60 256h121c74.441406 0 135-60.558594 135-135v-242c0-74.4375-60.558594-135-135-135zm0 0" fill="#191718" data-original="#865cb2" style="" class=""/><path xmlns="http://www.w3.org/2000/svg" d="m135 0c-74.4375 0-135 60.5625-135 135v242c0 74.441406 60.5625 135 135 135h121v-512zm0 0" fill="#191718" data-original="#f44545" style="" class=""/><path xmlns="http://www.w3.org/2000/svg" d="m180 407c-41.25 0-75-33.75-75-75v-152c0-41.25 33.75-75 75-75h152c41.25 0 75 33.75 75 75v152c0 41.25-33.75 75-75 75zm0 0" fill="#000000" data-original="#000000" style="" class=""/><path xmlns="http://www.w3.org/2000/svg" d="m332 90h-76l-60 166 60 166h76c49.625 0 90-40.375 90-90v-152c0-49.625-40.375-90-90-90zm0 0" fill="#ffffff" data-original="#ffe6f7" style="" class=""/><path xmlns="http://www.w3.org/2000/svg" d="m180 90c-49.625 0-90 40.375-90 90v152c0 49.625 40.375 90 90 90h76v-332zm0 0" fill="#ffffff" data-original="#ffffff" style="" class=""/><path xmlns="http://www.w3.org/2000/svg" d="m332 120h-76l-50 136 50 136h76c33.085938 0 60-26.914062 60-60v-152c0-33.085938-26.914062-60-60-60zm0 0" fill="#191718" data-original="#ff2ea6" style="" class=""/><path xmlns="http://www.w3.org/2000/svg" d="m180 120c-33.085938 0-60 26.914062-60 60v152c0 33.085938 26.914062 60 60 60h76v-272zm0 0" fill="#191718" data-original="#ffb52d" style="" class=""/><path xmlns="http://www.w3.org/2000/svg" d="m256 181-37.5 75 37.5 75c41.421875 0 75-33.578125 75-75s-33.578125-75-75-75zm0 0" fill="#ffffff" data-original="#ffe6f7" style="" class=""/><path xmlns="http://www.w3.org/2000/svg" d="m181 256c0 41.421875 33.578125 75 75 75v-150c-41.421875 0-75 33.578125-75 75zm0 0" fill="#ffffff" data-original="#ffffff" style="" class=""/><path xmlns="http://www.w3.org/2000/svg" d="m256 211-22.5 45 22.5 45c24.851562 0 45-20.148438 45-45s-20.148438-45-45-45zm0 0" fill="#191718" data-original="#d12898" style="" class=""/><path xmlns="http://www.w3.org/2000/svg" d="m211 256c0 24.851562 20.148438 45 45 45v-90c-24.851562 0-45 20.148438-45 45zm0 0" fill="#191718" data-original="#f44545" style="" class=""/><path xmlns="http://www.w3.org/2000/svg" d="m357 170c0 8.285156-6.714844 15-15 15s-15-6.714844-15-15 6.714844-15 15-15 15 6.714844 15 15zm0 0" fill="#ffffff" data-original="#ffe6f7" style="" class=""/></g></svg>
