<svg width="512.00213" height="359" xmlns="http://www.w3.org/2000/svg">
 <g>
  <title>Layer 1</title>
  <g id="svg_1">
   <path d="m501.45313,56.09375c-5.90235,-21.93359 -23.19532,-39.22266 -45.125,-45.12891c-40.06641,-10.96484 -200.33204,-10.96484 -200.33204,-10.96484s-160.26171,0 -200.32812,10.54688c-21.50781,5.90234 -39.22266,23.61718 -45.125,45.54687c-10.54297,40.0625 -10.54297,123.14844 -10.54297,123.14844s0,83.5039 10.54297,123.14844c5.90625,21.92968 23.19531,39.22265 45.12891,45.1289c40.48437,10.96485 200.32812,10.96485 200.32812,10.96485s160.26172,0 200.32813,-10.54688c21.93359,-5.90234 39.22265,-23.19531 45.1289,-45.125c10.54297,-40.06641 10.54297,-123.14844 10.54297,-123.14844s0.42188,-83.50781 -10.54687,-123.57031zm0,0" fill="#191718" id="svg_2"/>
   <path d="m204.96875,256l133.26953,-76.75781l-133.26953,-76.75781l0,153.51562zm0,0" fill="#ffffff" id="svg_3"/>
  </g>
 </g>

</svg>