<svg id="Capa_1" enable-background="new 0 0 512 512" height="512" viewBox="0 0 512 512" width="512" xmlns="http://www.w3.org/2000/svg"><g><path d="m310 1.509v58.491h58.491c-5.981-29.344-29.147-52.51-58.491-58.491z"/><path d="m321.01 432.591c-5.891 2.718-12.328 4.142-18.837 4.142-16.043 0-30.986-8.621-38.998-22.498l-22.499-38.97c-11.717-20.292-5.779-46.016 13.018-59.265-18.797-13.25-24.734-38.973-13.017-59.265l22.5-38.97c8.011-13.877 22.953-22.498 38.995-22.498 6.508 0 12.945 1.423 18.839 4.142 2.072-22.904 21.381-40.909 44.815-40.909h4.174v-68.5h-75c-8.284 0-15-6.716-15-15v-75h-265c-8.284 0-15 6.716-15 15v482c0 8.284 6.716 15 15 15h340c8.284 0 15-6.716 15-15v-23.5h-4.175c-23.434 0-42.743-18.004-44.815-40.909zm-256.01-311.591h240c8.284 0 15 6.716 15 15s-6.716 15-15 15h-240c-8.284 0-15-6.716-15-15s6.716-15 15-15zm0 60h160c8.284 0 15 6.716 15 15s-6.716 15-15 15h-160c-8.284 0-15-6.716-15-15s6.716-15 15-15zm0 60h130c8.284 0 15 6.716 15 15s-6.716 15-15 15h-130c-8.284 0-15-6.716-15-15s6.716-15 15-15zm0 60h130c8.284 0 15 6.716 15 15s-6.716 15-15 15h-130c-8.284 0-15-6.716-15-15s6.716-15 15-15zm0 60h130c8.284 0 15 6.716 15 15s-6.716 15-15 15h-130c-8.284 0-15-6.716-15-15s6.716-15 15-15zm160 90h-160c-8.284 0-15-6.716-15-15s6.716-15 15-15h160c8.284 0 15 6.716 15 15s-6.716 15-15 15z"/><path d="m504.503 339.774-14.806-8.548c.749-5.028 1.128-10.13 1.128-15.226s-.379-10.198-1.128-15.226l14.807-8.548c7.162-4.136 9.625-13.328 5.489-20.491l-22.5-38.971c-4.136-7.163-13.329-9.625-20.49-5.491l-14.902 8.604c-8.01-6.4-16.812-11.499-26.275-15.221v-17.156c0-8.271-6.729-15-15-15h-45c-8.271 0-15 6.729-15 15v17.157c-9.464 3.722-18.266 8.821-26.276 15.221l-14.902-8.604c-7.165-4.136-16.354-1.673-20.49 5.491l-22.5 38.971c-4.135 7.163-1.673 16.354 5.49 20.491l14.806 8.548c-.749 5.027-1.127 10.128-1.127 15.226s.378 10.199 1.127 15.226l-14.807 8.548c-7.162 4.136-9.625 13.328-5.489 20.491l22.5 38.971c4.136 7.164 13.33 9.626 20.49 5.491l14.902-8.604c8.011 6.4 16.812 11.499 26.276 15.221v17.155c0 8.271 6.729 15 15 15h45c8.271 0 15-6.729 15-15v-17.157c9.463-3.722 18.266-8.821 26.275-15.221l14.902 8.604c7.162 4.134 16.354 1.672 20.49-5.491l22.5-38.971c4.136-7.162 1.673-16.354-5.49-20.49zm-116.178 18.726c-23.435 0-42.5-19.065-42.5-42.5s19.065-42.5 42.5-42.5 42.5 19.065 42.5 42.5-19.065 42.5-42.5 42.5z"/></g></svg>