<svg width="648" height="400" viewBox="0 0 648 400" fill="none" xmlns="http://www.w3.org/2000/svg">
<path d="M649.701 314.532H1.70079C1.24971 314.532 0.817109 314.353 0.498149 314.035C0.17919 313.716 0 313.284 0 312.833C0 312.383 0.17919 311.951 0.498149 311.632C0.817109 311.314 1.24971 311.135 1.70079 311.135H649.701C650.152 311.135 650.584 311.314 650.903 311.632C651.222 311.951 651.402 312.383 651.402 312.833C651.402 313.284 651.222 313.716 650.903 314.035C650.584 314.353 650.152 314.532 649.701 314.532Z" fill="#3F3D56"/>
<path d="M338.557 91.9827C363.919 91.9827 384.478 71.4465 384.478 46.1138C384.478 20.781 363.919 0.244812 338.557 0.244812C313.196 0.244812 292.636 20.781 292.636 46.1138C292.636 71.4465 313.196 91.9827 338.557 91.9827Z" fill="#2F2E41"/>
<path d="M294.925 340.569L293.709 319.778L373.418 305.194L375.214 335.882L294.925 340.569Z" fill="#FFB8B8"/>
<path d="M298.787 304.579L301.133 344.678L275.857 346.154L272.033 280.807C275.352 280.613 278.677 281.074 281.818 282.164C284.959 283.254 287.854 284.951 290.339 287.158C292.823 289.366 294.848 292.04 296.297 295.029C297.747 298.018 298.593 301.263 298.787 304.579Z" fill="#2F2E41"/>
<path d="M329.594 340.378L316.353 356.468L247.92 313.115L267.461 289.369L329.594 340.378Z" fill="#FFB8B8"/>
<path d="M302.294 364.183L327.828 333.152L347.388 349.211L305.777 399.78C303.208 397.671 301.08 395.077 299.515 392.147C297.95 389.217 296.978 386.007 296.654 382.702C296.331 379.396 296.663 376.06 297.63 372.882C298.598 369.705 300.182 366.749 302.294 364.183Z" fill="#2F2E41"/>
<path d="M291.492 265.554L282.444 308.16C282.236 309.14 282.248 310.155 282.478 311.131C282.709 312.107 283.153 313.02 283.779 313.804C284.405 314.589 285.196 315.225 286.097 315.668C286.998 316.11 287.986 316.348 288.99 316.364L377.937 317.797C378.94 317.813 379.934 317.608 380.848 317.195C381.762 316.783 382.573 316.174 383.223 315.412C383.874 314.65 384.348 313.754 384.611 312.787C384.875 311.821 384.921 310.808 384.747 309.822L376.966 265.783C376.688 264.21 375.865 262.785 374.639 261.758C373.414 260.732 371.866 260.169 370.267 260.169H298.147C296.588 260.169 295.076 260.704 293.865 261.684C292.653 262.665 291.816 264.031 291.492 265.554Z" fill="#2F2E41"/>
<path d="M306.242 280.555C306.242 280.555 219.502 226.192 202.494 255.072C193.99 269.513 198.242 283.528 204.62 293.934C210.539 303.408 219.035 311.004 229.116 315.834L299.439 350.208L324.951 323.026L307.943 307.737L306.242 280.555Z" fill="#2F2E41"/>
<path d="M350.463 272.061C350.463 272.061 462.715 239.783 440.604 300.941C418.494 362.1 335.156 338.316 335.156 338.316L326.652 312.833L355.565 292.447L350.463 272.061Z" fill="#2F2E41"/>
<path d="M339.133 98.3133C362.204 98.3133 380.906 79.6322 380.906 56.5878C380.906 33.5434 362.204 14.8623 339.133 14.8623C316.062 14.8623 297.36 33.5434 297.36 56.5878C297.36 79.6322 316.062 98.3133 339.133 98.3133Z" fill="#FFB8B8"/>
<path d="M341.322 278.803C323.964 278.541 306.695 276.268 289.861 272.031L289.363 271.895L266.053 164.791C263.956 155.38 265.382 145.527 270.061 137.094C274.741 128.66 282.349 122.231 291.451 119.018C319.565 108.943 350.206 108.332 378.7 117.278H378.701C388.262 120.356 396.31 126.921 401.239 135.664C406.168 144.407 407.615 154.684 405.293 164.446L379.256 271.805L378.89 271.98C368.07 277.099 354.539 278.803 341.322 278.803Z" fill="#CCCCCC"/>
<path d="M310.01 287.123C310.856 284.773 312.209 282.637 313.971 280.866C315.733 279.094 317.863 277.73 320.21 276.87C322.558 276.009 325.065 275.674 327.556 275.886C330.048 276.098 332.462 276.854 334.629 278.099L380.528 238.304L384.68 269.577L340.458 302.572C338.122 306.071 334.583 308.592 330.511 309.658C326.439 310.724 322.117 310.261 318.364 308.357C314.611 306.452 311.688 303.239 310.148 299.326C308.608 295.412 308.559 291.07 310.01 287.123Z" fill="#FFB8B8"/>
<path d="M353.785 295.803C353.038 295.803 352.295 295.694 351.58 295.48C350.418 295.142 349.355 294.532 348.478 293.699C347.602 292.867 346.938 291.837 346.541 290.695L341.001 275.017C340.483 273.568 340.417 271.996 340.812 270.509C341.208 269.022 342.046 267.69 343.216 266.689L405.752 229.188L381.101 119.339L381.728 119.188C381.983 119.125 407.24 113.383 417.59 140.951C424.838 160.259 451.659 202.241 449.767 230.61C449.407 236.285 447.144 241.673 443.341 245.904C439.539 250.136 434.419 252.963 428.81 253.931L358.417 294.216C357.092 295.243 355.462 295.801 353.785 295.803Z" fill="#CCCCCC"/>
<path d="M360.798 283.397C359.952 281.047 358.6 278.911 356.837 277.139C355.075 275.368 352.945 274.004 350.598 273.143C348.251 272.283 345.743 271.947 343.252 272.159C340.761 272.372 338.346 273.127 336.179 274.372L290.281 234.577L286.128 265.851L330.35 298.846C332.686 302.344 336.225 304.865 340.297 305.931C344.369 306.997 348.691 306.534 352.444 304.63C356.197 302.726 359.121 299.512 360.66 295.599C362.2 291.686 362.249 287.344 360.798 283.397Z" fill="#FFB8B8"/>
<path d="M321.629 295.803C319.951 295.801 318.322 295.242 316.996 294.216L241.501 257.329C235.892 256.361 230.773 253.533 226.97 249.302C223.167 245.07 220.904 239.682 220.544 234.008C218.652 205.638 250.576 160.259 257.824 140.951C268.173 113.383 293.431 119.123 293.686 119.188L294.313 119.339L264.559 232.586L332.197 266.689C333.368 267.69 334.206 269.022 334.601 270.509C334.997 271.996 334.931 273.568 334.412 275.017L328.872 290.695C328.476 291.837 327.812 292.867 326.935 293.699C326.059 294.532 324.995 295.142 323.834 295.48C323.118 295.694 322.376 295.803 321.629 295.803Z" fill="#CCCCCC"/>
<path d="M411.691 312.833H260.321C257.165 312.83 254.138 311.576 251.907 309.346C249.675 307.117 248.419 304.094 248.415 300.941V217.698C248.419 214.545 249.675 211.522 251.907 209.293C254.138 207.063 257.165 205.809 260.321 205.806H411.691C414.847 205.809 417.873 207.063 420.105 209.293C422.337 211.522 423.593 214.545 423.597 217.698V300.941C423.593 304.094 422.337 307.117 420.105 309.346C417.873 311.576 414.847 312.83 411.691 312.833Z" fill="#0A62D0"/>
<path d="M336.006 269.513C341.642 269.513 346.211 264.949 346.211 259.32C346.211 253.69 341.642 249.126 336.006 249.126C330.37 249.126 325.801 253.69 325.801 259.32C325.801 264.949 330.37 269.513 336.006 269.513Z" fill="white"/>
<path d="M296.942 54.8895C294.466 48.6168 298.528 41.1417 304.554 38.1032C310.58 35.0646 317.851 35.6425 324.297 37.6451C329.714 39.328 334.79 41.9362 340.075 43.9961C345.285 46.3022 350.976 47.3146 356.662 46.9469C362.299 46.311 367.91 43.1537 370.216 37.977C372.607 32.611 370.981 26.0626 367.299 21.4832C363.382 17.0559 358.311 13.801 352.652 12.0804C340.224 7.7068 325.868 7.57894 314.33 13.9364C302.791 20.2938 294.95 33.8302 297.335 46.7751" fill="#2F2E41"/>
<path d="M55.5519 294.687C57.6531 272.083 63.4567 249.977 72.7307 229.252C75.3155 223.484 78.1604 217.844 81.2655 212.33C81.4213 212.042 81.4588 211.704 81.3702 211.389C81.2816 211.073 81.0737 210.805 80.7905 210.639C80.5074 210.474 80.1709 210.425 79.8523 210.503C79.5336 210.58 79.2576 210.779 79.0825 211.056C67.7905 231.138 59.8797 252.937 55.6664 275.582C54.4944 281.906 53.6135 288.274 53.0237 294.687C52.8739 296.305 55.403 296.294 55.5519 294.687H55.5519Z" fill="#E6E6E6"/>
<path d="M87.3889 216.38C96.232 216.38 103.401 209.219 103.401 200.386C103.401 191.553 96.232 184.393 87.3889 184.393C78.5457 184.393 71.377 191.553 71.377 200.386C71.377 209.219 78.5457 216.38 87.3889 216.38Z" fill="#0A62D0"/>
<path d="M57.1898 295.112C58.553 280.448 62.318 266.106 68.3345 252.661C70.0114 248.919 71.857 245.26 73.8714 241.683C73.9724 241.496 73.9967 241.277 73.9392 241.072C73.8817 240.868 73.7469 240.694 73.5632 240.586C73.3795 240.479 73.1613 240.447 72.9546 240.498C72.7479 240.548 72.5688 240.677 72.4552 240.856C65.1296 253.884 59.9975 268.027 57.2641 282.717C56.5037 286.82 55.9323 290.951 55.5497 295.112C55.4525 296.161 57.0932 296.155 57.1898 295.112H57.1898Z" fill="#E6E6E6"/>
<path d="M77.844 244.311C83.5809 244.311 88.2316 239.665 88.2316 233.935C88.2316 228.204 83.5809 223.559 77.844 223.559C72.107 223.559 67.4563 228.204 67.4563 233.935C67.4563 239.665 72.107 244.311 77.844 244.311Z" fill="#0A62D0"/>
<path d="M55.1197 294.132C47.1649 281.732 41.3028 268.112 37.7676 253.814C36.7858 249.833 35.9878 245.814 35.3735 241.756C35.338 241.547 35.2224 241.359 35.0511 241.233C34.8797 241.107 34.666 241.052 34.4551 241.081C34.2442 241.109 34.0525 241.218 33.9205 241.385C33.7885 241.551 33.7266 241.763 33.7477 241.974C35.9938 256.747 40.6555 271.051 47.5463 284.314C49.4729 288.016 51.5663 291.625 53.8265 295.14C54.396 296.027 55.6856 295.014 55.1197 294.132Z" fill="#E6E6E6"/>
<path d="M33.7346 243.582C39.4715 243.582 44.1222 238.937 44.1222 233.206C44.1222 227.476 39.4715 222.831 33.7346 222.831C27.9976 222.831 23.3469 227.476 23.3469 233.206C23.3469 238.937 27.9976 243.582 33.7346 243.582Z" fill="#0A62D0"/>
<path d="M23.2303 303.312V282.926C23.2326 280.899 24.0397 278.956 25.4745 277.523C26.9094 276.09 28.8547 275.284 30.8839 275.281H78.5059C80.5351 275.284 82.4805 276.09 83.9153 277.523C85.3501 278.956 86.1572 280.899 86.1595 282.926V303.312C86.1572 305.339 85.3501 307.282 83.9153 308.716C82.4805 310.149 80.5351 310.955 78.5059 310.957H30.8839C28.8547 310.955 26.9094 310.149 25.4745 308.716C24.0397 307.282 23.2326 305.339 23.2303 303.312Z" fill="#F2F2F2"/>
<path d="M534.743 327.105C534.743 338.278 525.674 343.357 514.488 343.357C503.302 343.357 494.234 338.278 494.234 327.105C494.234 315.931 498.735 302.894 514.488 307.39C530.242 300.646 534.743 315.931 534.743 327.105Z" fill="#FF6584"/>
<path d="M513.502 312.624C512.714 312.626 511.953 312.34 511.361 311.821C510.769 311.302 510.386 310.586 510.285 309.805C509.615 304.231 505.918 293.313 504.36 288.878L504.36 288.877C504.202 288.436 504.154 287.964 504.219 287.5C504.284 287.037 504.461 286.596 504.734 286.216C504.996 285.876 505.326 285.595 505.704 285.392C506.081 285.188 506.498 285.067 506.926 285.036C507.354 285.006 507.783 285.066 508.186 285.213C508.589 285.359 508.957 285.59 509.264 285.889C509.539 286.176 509.751 286.517 509.888 286.89C510.025 287.263 510.084 287.661 510.061 288.057C509.755 293.749 513.909 302.947 516.413 307.924C516.649 308.393 516.768 308.913 516.759 309.438C516.75 309.963 516.613 310.478 516.36 310.939C516.108 311.399 515.747 311.792 515.309 312.082C514.87 312.373 514.368 312.552 513.845 312.606C513.731 312.619 513.616 312.625 513.502 312.624Z" fill="#3F3D56"/>
<path d="M528.489 300.067C535.52 294.319 530.004 282.556 521.204 284.814C520.02 285.097 518.929 285.678 518.034 286.503C512.636 291.597 511.8 304.628 511.8 304.628C511.8 304.628 521.332 305.918 528.489 300.067Z" fill="#3F3D56"/>
</svg>
